<svg width="18" height="12" viewBox="0 0 18 12" fill="none" xmlns="http://www.w3.org/2000/svg">
<path d="M1.33333 0C1.07124 0 0.830689 0.0807136 0.625 0.215291L8.13196 7.3264C8.4608 7.63811 8.88698 7.63809 9.21529 7.3264L16.7083 0.215291C16.5026 0.0807136 16.2621 0 16 0H1.33333ZM0.0833333 0.916667C0.0325556 1.06347 0 1.21656 0 1.38196V10.618C0 10.8987 0.0781555 11.1573 0.215289 11.375L5.52084 6.0764L0.0833333 0.916667ZM17.25 0.916667L11.8264 6.06944L17.118 11.375C17.2552 11.1573 17.3333 10.8987 17.3333 10.618V1.38196C17.3333 1.21656 17.3008 1.06347 17.25 0.916667ZM11.1806 6.68751L9.8264 7.97222C9.18156 8.58447 8.16578 8.5836 7.52084 7.97222L6.16667 6.69444L0.916667 11.9306C1.04798 11.9752 1.18729 12 1.33333 12H16C16.146 12 16.2854 11.9752 16.4167 11.9306L11.1806 6.68751Z" fill="#22B04C"/>
</svg>
