<svg width="236" height="49" viewBox="0 0 236 49" fill="none" xmlns="http://www.w3.org/2000/svg">
<path d="M75.8 44V40.9H67.55V36.575H74.575V33.475H67.55V29.3H75.8V26.2H64.075V44H75.8ZM97.3617 44V35.675C97.3617 34.25 96.9867 33.025 95.9367 31.975C95.2117 31.25 94.0367 30.825 92.7367 30.825C91.1117 30.825 89.9367 31.325 88.8367 32.475C88.0117 31.35 86.8367 30.825 85.3867 30.825C84.1867 30.825 82.9867 31.3 82.1367 32.175V30.975H78.9617V44H82.2117V36.125C82.2117 34.35 83.3617 33.75 84.3867 33.75C85.4117 33.75 86.5367 34.35 86.5367 36.125V44H89.7867V36.05C89.7867 34.35 90.9617 33.75 91.9617 33.75C92.9867 33.75 94.1117 34.35 94.1117 36.125V44H97.3617ZM111.761 37.475C111.761 35.525 111.736 33.3 110.436 32C109.711 31.275 108.536 30.825 107.261 30.825C105.886 30.825 104.911 31.2 104.011 32.2V30.975H100.861V48.775H104.111V42.85C104.961 43.8 105.936 44.15 107.261 44.15C108.536 44.15 109.711 43.7 110.436 42.975C111.736 41.675 111.761 39.425 111.761 37.475ZM108.511 37.475C108.511 39.6 108.261 41.225 106.311 41.225C104.361 41.225 104.111 39.6 104.111 37.475C104.111 35.35 104.361 33.75 106.311 33.75C108.261 33.75 108.511 35.35 108.511 37.475ZM125.325 37.475C125.325 35.125 125.025 33.65 123.85 32.425C123.05 31.575 121.725 30.825 119.8 30.825C117.875 30.825 116.575 31.575 115.775 32.425C114.6 33.65 114.3 35.125 114.3 37.475C114.3 39.85 114.6 41.325 115.775 42.55C116.575 43.4 117.875 44.15 119.8 44.15C121.725 44.15 123.05 43.4 123.85 42.55C125.025 41.325 125.325 39.85 125.325 37.475ZM122.075 37.475C122.075 38.825 122 39.975 121.325 40.65C120.95 41.025 120.45 41.225 119.8 41.225C119.15 41.225 118.675 41.025 118.3 40.65C117.625 39.975 117.55 38.825 117.55 37.475C117.55 36.125 117.625 35 118.3 34.325C118.675 33.95 119.15 33.75 119.8 33.75C120.45 33.75 120.95 33.95 121.325 34.325C122 35 122.075 36.125 122.075 37.475ZM145.279 30.975H141.854L139.754 39.025L137.079 30.975H134.704L132.054 39.025L129.954 30.975H126.504L130.504 44H133.179L135.904 35.825L138.629 44H141.304L145.279 30.975ZM157.704 38.5V37.05C157.704 33.475 155.654 30.825 152.029 30.825C148.654 30.825 146.354 33.225 146.354 37.475C146.354 42.75 149.304 44.15 152.379 44.15C154.729 44.15 156.004 43.425 157.329 42.1L155.354 40.175C154.529 41 153.829 41.4 152.404 41.4C150.579 41.4 149.554 40.175 149.554 38.5H157.704ZM154.504 36.275H149.554C149.579 35.7 149.654 35.35 149.854 34.875C150.204 34.1 150.929 33.525 152.029 33.525C153.129 33.525 153.854 34.1 154.204 34.875C154.404 35.35 154.479 35.7 154.504 36.275ZM170.225 32.05C169.325 31.15 168.425 30.825 167.15 30.825C165.75 30.825 164.5 31.475 163.875 32.225V30.975H160.7V44H163.95V36.15C163.95 34.5 165.05 33.75 166.05 33.75C166.85 33.75 167.275 34.025 167.775 34.525L170.225 32.05ZM190.477 44V35.675C190.477 34.25 190.102 33.025 189.052 31.975C188.327 31.25 187.152 30.825 185.852 30.825C184.227 30.825 183.052 31.325 181.952 32.475C181.127 31.35 179.952 30.825 178.502 30.825C177.302 30.825 176.102 31.3 175.252 32.175V30.975H172.077V44H175.327V36.125C175.327 34.35 176.477 33.75 177.502 33.75C178.527 33.75 179.652 34.35 179.652 36.125V44H182.902V36.05C182.902 34.35 184.077 33.75 185.077 33.75C186.102 33.75 187.227 34.35 187.227 36.125V44H190.477ZM204.676 38.5V37.05C204.676 33.475 202.626 30.825 199.001 30.825C195.626 30.825 193.326 33.225 193.326 37.475C193.326 42.75 196.276 44.15 199.351 44.15C201.701 44.15 202.976 43.425 204.301 42.1L202.326 40.175C201.501 41 200.801 41.4 199.376 41.4C197.551 41.4 196.526 40.175 196.526 38.5H204.676ZM201.476 36.275H196.526C196.551 35.7 196.626 35.35 196.826 34.875C197.176 34.1 197.901 33.525 199.001 33.525C200.101 33.525 200.826 34.1 201.176 34.875C201.376 35.35 201.451 35.7 201.476 36.275ZM218.498 44V35.675C218.498 34.25 218.223 33.025 217.173 31.975C216.448 31.25 215.398 30.825 214.098 30.825C212.898 30.825 211.698 31.275 210.848 32.175V30.975H207.673V44H210.923V36.125C210.923 34.35 212.073 33.75 213.098 33.75C214.123 33.75 215.248 34.35 215.248 36.125V44H218.498ZM227.854 44V41.25H226.679C225.904 41.25 225.554 40.825 225.554 40.075V33.825H227.854V31.35H225.554V27.5H222.304V31.35H220.929V33.825H222.304V40.275C222.304 42.125 223.429 44 226.079 44H227.854Z" fill="#22B04C"/>
<path d="M65.043 19V6.896H63.751V19H65.043ZM74.9069 19V13.645C74.9069 12.676 74.6349 11.894 74.0399 11.316C73.5299 10.806 72.7989 10.534 71.8979 10.534C70.9629 10.534 70.1469 10.874 69.5519 11.554V10.636H68.3279V19H69.5519V13.849C69.5519 12.387 70.3679 11.622 71.6259 11.622C72.8839 11.622 73.6829 12.37 73.6829 13.849V19H74.9069ZM83.8748 17.861L83.0418 17.062C82.4128 17.759 81.9198 18.014 81.1208 18.014C80.3048 18.014 79.6248 17.691 79.1828 17.062C78.7918 16.518 78.6388 15.872 78.6388 14.818C78.6388 13.764 78.7918 13.118 79.1828 12.574C79.6248 11.945 80.3048 11.622 81.1208 11.622C81.9198 11.622 82.4128 11.86 83.0418 12.557L83.8748 11.775C83.0078 10.84 82.2768 10.534 81.1208 10.534C79.0128 10.534 77.4148 11.962 77.4148 14.818C77.4148 17.674 79.0128 19.102 81.1208 19.102C82.2768 19.102 83.0078 18.796 83.8748 17.861ZM91.7837 11.316C91.1887 10.721 90.5767 10.534 89.7777 10.534C88.8087 10.534 87.8907 10.959 87.4317 11.656V10.636H86.2077V19H87.4317V13.866C87.4317 12.591 88.2137 11.622 89.4377 11.622C90.0837 11.622 90.4237 11.775 90.8827 12.234L91.7837 11.316ZM99.191 15.141V14.58C99.191 12.098 97.916 10.534 95.757 10.534C93.632 10.534 92.323 12.115 92.323 14.818C92.323 17.776 93.768 19.102 95.978 19.102C97.406 19.102 98.188 18.66 99.038 17.81L98.205 17.079C97.542 17.742 96.981 18.031 96.012 18.031C94.414 18.031 93.547 16.977 93.547 15.141H99.191ZM97.967 14.223H93.547C93.581 13.543 93.615 13.288 93.802 12.829C94.125 12.064 94.873 11.571 95.757 11.571C96.641 11.571 97.389 12.064 97.712 12.829C97.899 13.288 97.933 13.543 97.967 14.223ZM108.002 19V6.896H106.778V11.605C106.098 10.738 105.333 10.534 104.415 10.534C103.565 10.534 102.817 10.823 102.375 11.265C101.525 12.115 101.355 13.509 101.355 14.818C101.355 16.127 101.525 17.521 102.375 18.371C102.817 18.813 103.565 19.102 104.415 19.102C105.333 19.102 106.115 18.881 106.795 17.997V19H108.002ZM106.778 14.818C106.778 16.45 106.506 18.014 104.687 18.014C102.868 18.014 102.579 16.45 102.579 14.818C102.579 13.186 102.868 11.622 104.687 11.622C106.506 11.622 106.778 13.186 106.778 14.818ZM112.284 19V10.636H111.06V19H112.284ZM112.369 8.256V6.879H110.992V8.256H112.369ZM122.007 14.818C122.007 13.509 121.837 12.115 120.987 11.265C120.545 10.823 119.797 10.534 118.947 10.534C118.029 10.534 117.264 10.738 116.584 11.605V6.896H115.36V19H116.584V17.997C117.264 18.881 118.029 19.102 118.947 19.102C119.797 19.102 120.545 18.813 120.987 18.371C121.837 17.521 122.007 16.127 122.007 14.818ZM120.783 14.818C120.783 16.45 120.511 18.014 118.692 18.014C116.873 18.014 116.584 16.45 116.584 14.818C116.584 13.186 116.873 11.622 118.692 11.622C120.511 11.622 120.783 13.186 120.783 14.818ZM127.599 19V17.946H126.936C126.086 17.946 125.814 17.538 125.814 16.722V6.896H124.59V16.773C124.59 18.048 125.253 19 126.715 19H127.599ZM135.648 15.141V14.58C135.648 12.098 134.373 10.534 132.214 10.534C130.089 10.534 128.78 12.115 128.78 14.818C128.78 17.776 130.225 19.102 132.435 19.102C133.863 19.102 134.645 18.66 135.495 17.81L134.662 17.079C133.999 17.742 133.438 18.031 132.469 18.031C130.871 18.031 130.004 16.977 130.004 15.141H135.648ZM134.424 14.223H130.004C130.038 13.543 130.072 13.288 130.259 12.829C130.582 12.064 131.33 11.571 132.214 11.571C133.098 11.571 133.846 12.064 134.169 12.829C134.356 13.288 134.39 13.543 134.424 14.223Z" fill="black"/>
<path fill-rule="evenodd" clip-rule="evenodd" d="M24 48C37.2548 48 48 37.2548 48 24C48 10.7452 37.2548 0 24 0C10.7452 0 0 10.7452 0 24C0 37.2548 10.7452 48 24 48Z" fill="#22B04C"/>
<path d="M34.2482 21.5585C34.2482 21.4248 34.2482 21.2912 34.2482 21.0907V16.6802C34.2482 15.0095 32.8449 13.6062 31.1742 13.6062C30.7065 13.6062 30.2387 13.7399 29.8377 13.9403C29.7709 12.2697 28.4344 11 26.7637 11C25.895 11 25.1599 11.3341 24.5585 11.9356C23.9571 11.3341 23.222 11.0668 22.3532 11.0668C20.9499 11.0668 19.8138 12.0024 19.4129 13.2053C18.9451 12.9379 18.4773 12.8043 17.9427 12.8043C16.2721 12.8043 14.8687 14.2076 14.8687 15.8783V20.0883C14.3341 20.8902 14 21.8258 14 22.8282V28.3079C14 29.3103 14.401 30.3126 15.136 31.0477L17.4749 33.3198V34.6563V35.5251V37.463C19.6134 38.4654 22.0191 39 24.4917 39C27.031 39 29.3699 38.4654 31.5084 37.463V35.5251V34.0549V33.5203C33.1122 32.7184 34.1146 31.1146 34.1146 29.2434V21.5585H34.2482ZM25.494 14.074C25.494 13.3389 26.0955 12.7375 26.8306 12.7375C27.5656 12.7375 28.1671 13.3389 28.1671 14.074V16.6802V21.0907C28.1671 21.8258 27.5656 22.4272 26.8306 22.4272C26.0955 22.4272 25.494 21.8258 25.494 21.0907V14.074ZM21.0835 15.8783V14.074C21.0835 13.3389 21.685 12.7375 22.4201 12.7375C22.7542 12.7375 23.0883 12.8711 23.3556 13.1384C23.6229 13.4057 23.7566 13.7399 23.7566 14.074V18.4177C23.2888 18.2172 22.821 18.0835 22.2864 18.0835H21.0835V15.8783ZM16.673 15.8783C16.673 15.1432 17.2745 14.5418 18.0095 14.5418C18.3437 14.5418 18.6778 14.6754 18.9451 14.9427C19.2124 15.21 19.3461 15.5442 19.3461 15.8783V18.0167H18.8783C18.0764 18.0167 17.3413 18.2172 16.7399 18.5513V15.8783H16.673ZM32.5107 29.3103C32.5107 30.58 31.7088 31.716 30.506 32.1169C30.1718 32.2506 29.9045 32.5847 29.9045 32.9189V36.327C28.2339 36.9284 26.4964 37.3294 24.6253 37.3294C22.7542 37.3294 21.0167 36.9952 19.3461 36.327V32.9189C19.3461 32.6516 19.2792 32.4511 19.0788 32.3174L16.4726 29.778C16.0716 29.3771 15.8711 28.8425 15.8711 28.3079V22.8282C15.8711 21.1575 17.2077 19.7542 18.9451 19.7542H22.3532C22.7542 19.7542 23.1551 19.9547 23.4893 20.222C23.7566 20.4893 23.8234 20.7566 23.8234 21.0907V21.1575C23.8234 21.2912 23.7566 21.4248 23.6897 21.5585C23.6897 21.5585 23.6897 21.5585 23.6897 21.6253C23.6229 21.7589 23.5561 21.8926 23.4224 21.9594C23.1551 22.2267 22.821 22.3604 22.4869 22.3604H19.4129C18.9451 22.3604 18.5442 22.7613 18.5442 23.2291V24.9666C18.5442 25.1671 18.611 25.4344 18.8115 25.568L18.9451 25.7017C19.4797 26.2363 20.2148 26.6372 21.0167 26.7709C23.1551 27.105 24.6921 28.9761 24.6921 31.1146H26.4296C26.4296 28.1074 24.2912 25.5012 21.284 25.0334C20.8831 24.9666 20.5489 24.8329 20.2816 24.5656V24.031H22.4869C22.6874 24.031 22.8878 24.031 23.0883 23.9642C23.6897 23.8305 24.2243 23.5632 24.6921 23.0955C25.2267 23.6969 26.0287 24.031 26.8974 24.031C27.7661 24.031 28.568 23.6969 29.1026 23.0955C29.6372 23.6969 30.4392 24.031 31.3079 24.031C31.7757 24.031 32.2435 23.8974 32.6444 23.6969V29.3103H32.5107ZM32.5107 21.1575C32.5107 21.8926 31.9093 22.494 31.1742 22.494C30.4391 22.494 29.8377 21.8926 29.8377 21.1575V16.747C29.8377 16.0119 30.4391 15.4105 31.1742 15.4105C31.9093 15.4105 32.5107 16.0119 32.5107 16.747V21.1575Z" fill="white"/>
</svg>
