<svg width="200" height="200" viewBox="0 0 200 200" fill="none" xmlns="http://www.w3.org/2000/svg">
<circle cx="100" cy="100" r="100" fill="#22B04C"/>
<path d="M78.7436 112.767C87.3808 112.767 94.3826 105.765 94.3826 97.1276C94.3826 88.4904 87.3808 81.4885 78.7436 81.4885C70.1063 81.4885 63.1045 88.4904 63.1045 97.1276C63.1045 105.765 70.1063 112.767 78.7436 112.767Z" fill="white"/>
<path d="M78.744 75.4734C80.4282 75.4734 81.8718 74.0298 81.8718 72.3456V64.4058C81.8718 62.7216 80.4282 61.278 78.744 61.278C77.0598 61.278 75.6162 62.7216 75.6162 64.4058V72.3456C75.6162 74.0298 76.9395 75.4734 78.744 75.4734Z" fill="white"/>
<path d="M59.015 81.8494C59.6165 82.4509 60.4586 82.8118 61.3007 82.8118C62.1428 82.8118 62.8646 82.4509 63.5864 81.8494C64.7894 80.6464 64.7894 78.6012 63.5864 77.3982L58.0526 71.8644C56.8496 70.6614 54.8045 70.6614 53.6015 71.8644C52.3985 73.0674 52.3985 75.1125 53.6015 76.3155L59.015 81.8494Z" fill="white"/>
<path d="M57.09 97.1275C57.09 95.4432 55.6464 93.9996 53.9622 93.9996H46.0223C44.3381 93.9996 42.8945 95.4432 42.8945 97.1275C42.8945 98.8117 44.3381 100.255 46.0223 100.255H53.8419C55.6464 100.255 57.09 98.8117 57.09 97.1275Z" fill="white"/>
<path d="M59.0152 112.406L53.4814 117.939C52.2784 119.143 52.2784 121.188 53.4814 122.391C54.0829 122.992 54.925 123.353 55.7671 123.353C56.6092 123.353 57.331 122.992 58.0528 122.391L63.5866 116.857C64.7896 115.654 64.7896 113.609 63.5866 112.406C62.143 111.203 60.2182 111.203 59.0152 112.406Z" fill="white"/>
<path d="M94.0224 112.406C92.8194 113.609 92.8194 115.654 94.0224 116.857L99.5562 122.391C100.158 122.992 101 123.353 101.842 123.353C102.684 123.353 103.406 122.992 104.128 122.391C105.331 121.188 105.331 119.143 104.128 117.939L98.5938 112.406C97.2705 111.203 95.2254 111.203 94.0224 112.406Z" fill="white"/>
<path d="M100.397 97.1275C100.397 98.8117 101.841 100.255 103.525 100.255H111.345C113.029 100.255 114.473 98.8117 114.473 97.1275C114.473 95.4432 113.029 93.9996 111.345 93.9996H103.525C101.721 93.9996 100.397 95.3229 100.397 97.1275Z" fill="white"/>
<path d="M96.1878 82.6913C97.0299 82.6913 97.7517 82.3304 98.4735 81.7289L104.007 76.195C105.21 74.992 105.21 72.9469 104.007 71.7439C102.804 70.5409 100.759 70.5409 99.5562 71.7439L94.0224 77.3981C92.8194 78.6011 92.8194 80.6462 94.0224 81.8492C94.6239 82.4507 95.466 82.6913 96.1878 82.6913Z" fill="white"/>
<path d="M154.894 90.3909H151.165V82.5714C151.165 81.3683 150.203 80.2856 148.879 80.2856C147.676 80.2856 146.594 81.248 146.594 82.5714V90.3909H138.894V82.5714C138.894 81.3683 137.932 80.2856 136.609 80.2856C135.285 80.2856 134.323 81.248 134.323 82.5714V90.3909H130.594C129.391 90.3909 128.308 91.3533 128.308 92.6766C128.308 93.9999 129.27 94.9623 130.594 94.9623H131.195V99.0525C131.195 104.346 134.804 108.677 139.616 110.12V121.91C139.616 135.263 128.789 146.21 115.315 146.21H106.173C92.8192 146.21 81.8718 135.383 81.8718 121.91C81.8718 120.225 80.4282 118.782 78.744 118.782C77.0598 118.782 75.6162 120.225 75.6162 121.91C75.6162 138.752 89.3305 152.466 106.173 152.466H115.315C132.157 152.466 145.872 138.752 145.872 121.91V110.12C150.684 108.797 154.293 104.346 154.293 99.0525V94.9623H154.894C156.097 94.9623 157.18 93.9999 157.18 92.6766C157.18 91.3533 156.218 90.3909 154.894 90.3909Z" fill="white"/>
</svg>
