<svg width="200" height="200" viewBox="0 0 200 200" fill="none" xmlns="http://www.w3.org/2000/svg">
<circle cx="100" cy="100" r="100" fill="#22B04C"/>
<path d="M58.0913 70.7189C62.317 70.7189 65.7744 67.2615 65.7744 63.0358C65.7744 58.8101 62.317 55.3527 58.0913 55.3527C53.8656 55.3527 50.4082 58.8101 50.4082 63.0358C50.4082 67.2615 53.8656 70.7189 58.0913 70.7189Z" fill="white"/>
<path d="M90.8727 109.903C94.0551 109.903 96.635 107.323 96.635 104.14C96.635 100.958 94.0551 98.3781 90.8727 98.3781C87.6902 98.3781 85.1104 100.958 85.1104 104.14C85.1104 107.323 87.6902 109.903 90.8727 109.903Z" fill="white"/>
<path d="M111.874 109.903C115.056 109.903 117.636 107.323 117.636 104.14C117.636 100.958 115.056 98.3781 111.874 98.3781C108.691 98.3781 106.111 100.958 106.111 104.14C106.111 107.323 108.691 109.903 111.874 109.903Z" fill="white"/>
<path d="M160.789 101.323L152.722 74.048C152.337 72.8955 151.441 71.9992 150.161 71.7431L147.472 71.3589C146.063 72.1272 144.398 72.6395 142.606 72.6395C140.813 72.6395 139.148 72.1272 137.74 71.3589L135.051 71.7431C133.77 71.9992 132.874 72.8955 132.489 74.048L124.422 101.323C124.294 101.835 124.422 102.475 124.678 102.86L116.227 110.671C114.946 111.439 113.538 111.951 112.001 111.951C110.465 111.951 108.928 111.439 107.647 110.671L107.135 110.799C106.367 110.927 105.727 111.567 105.471 112.207L101.885 122.708L98.6838 112.207C98.4277 111.439 97.9155 110.927 97.1472 110.671L95.4825 110.543C94.202 111.439 92.6654 111.951 91.0007 111.951C89.336 111.951 87.9275 111.439 86.647 110.543L77.2992 102.219C77.4273 101.835 77.4272 101.451 77.4272 101.067L70.2564 74.048C70.0003 72.8955 68.9758 71.9992 67.8234 71.7431L63.3416 71.2308C61.933 72.1272 60.1402 72.6395 58.3475 72.6395C56.5548 72.6395 54.7621 72.1272 53.3535 71.2308L48.8717 71.7431C47.7193 71.9992 46.6948 72.8955 46.4387 74.048L39.2678 101.067C39.0117 102.091 39.652 103.116 40.5484 103.372L41.9569 103.756C42.9813 104.012 44.1338 103.5 44.3899 102.347L48.6156 87.4934C48.6156 89.2861 48.6156 91.0789 48.4876 92.8716L47.7192 102.732C47.7192 103.756 48.4876 104.524 49.512 104.524L50.4084 143.836C50.4084 144.733 51.1767 145.501 52.073 145.501H55.2743C56.1707 145.501 56.939 144.732 56.939 143.708L58.3475 109.006C58.3475 108.366 58.7317 108.366 58.7317 109.006L60.1403 143.708C60.1403 144.732 60.9086 145.501 61.8049 145.501H65.0062C65.9026 145.501 66.6709 144.733 66.6709 143.836L67.5672 104.524C68.5917 104.524 69.36 103.628 69.36 102.732L68.5916 92.7436C68.4636 91.0789 68.4636 89.2862 68.4636 87.6215L72.5613 102.347C72.8174 103.244 73.5857 103.884 74.4821 103.756C74.4821 103.884 74.482 103.884 74.6101 104.012L85.1103 115.281C85.1103 117.329 85.1104 120.147 84.9823 121.555L84.4701 127.83C84.4701 128.47 84.9823 128.982 85.6226 128.982L86.1347 144.348C86.1347 144.989 86.6469 145.373 87.1591 145.373H89.208C89.8483 145.373 90.2324 144.861 90.2324 144.22L91.1288 131.799C91.1288 131.415 91.3849 131.415 91.3849 131.799L92.2812 144.22C92.2812 144.861 92.7935 145.373 93.3057 145.373H95.3545C95.8667 145.373 96.3789 144.861 96.3789 144.348L96.8911 128.982C97.5314 128.982 98.0435 128.47 98.0435 127.83L97.5314 121.555L100.092 127.702C100.22 128.342 100.989 128.726 101.629 128.598H101.757C102.269 128.854 102.91 128.47 103.166 127.958L106.751 120.275C106.623 121.043 106.623 121.683 106.495 122.452L104.318 133.208C104.19 134.36 105.086 135.513 106.367 135.513H107.391L107.647 144.477C107.647 145.117 108.16 145.501 108.8 145.501H109.696C110.337 145.501 110.849 144.989 110.849 144.348L111.617 135.385H112.898L113.666 144.348C113.666 144.989 114.178 145.501 114.818 145.501H115.715C116.355 145.501 116.867 144.989 116.867 144.477L117.123 135.513H118.148C119.428 135.513 120.325 134.488 120.197 133.208L118.02 122.452C117.764 121.299 117.636 120.147 117.636 118.994L117.507 115.665L127.239 104.652C127.495 104.396 127.495 104.14 127.495 103.756C128.264 103.756 128.904 103.244 129.032 102.604L134.922 84.036L134.794 88.7739C134.666 90.5667 134.538 92.3594 134.154 94.0241L129.672 110.927C129.416 112.848 130.953 114.512 132.874 114.512H135.179L135.819 143.964C135.819 144.861 136.715 145.629 137.612 145.629H139.02C140.045 145.629 140.813 144.861 140.813 143.836L142.221 114.512H143.886L145.295 143.836C145.295 144.861 146.063 145.629 147.087 145.629H148.496C149.392 145.629 150.161 144.861 150.289 143.964L150.929 114.512H153.234C155.155 114.512 156.691 112.848 156.435 110.927L151.953 94.1521C151.569 92.3594 151.313 90.5667 151.313 88.7739L151.185 84.036L157.075 102.732C157.332 103.628 158.356 104.14 159.252 103.756L160.277 103.372C160.661 103.116 161.045 102.219 160.789 101.323Z" fill="white"/>
<path d="M142.604 70.7189C146.83 70.7189 150.287 67.2615 150.287 63.0358C150.287 58.8101 146.83 55.3527 142.604 55.3527C138.378 55.3527 134.921 58.8101 134.921 63.0358C134.921 67.2615 138.378 70.7189 142.604 70.7189Z" fill="white"/>
</svg>
