<svg width="13" height="14" viewBox="0 0 13 14" fill="none" xmlns="http://www.w3.org/2000/svg">
<path fill-rule="evenodd" clip-rule="evenodd" d="M3.9 0.222656H9.1C11.2539 0.222656 13 1.96875 13 4.12266V9.32266C13 11.4766 11.2539 13.2227 9.1 13.2227H3.9C1.74609 13.2227 0 11.4766 0 9.32266V4.12266C0 1.96875 1.74609 0.222656 3.9 0.222656ZM10.4 2.17266C10.725 2.17266 11.05 2.49766 11.05 2.82266C11.05 3.14766 10.725 3.47266 10.4 3.47266C10.075 3.47266 9.75 3.14766 9.75 2.82266C9.75 2.49766 10.075 2.17266 10.4 2.17266ZM9.75 6.72266C9.75 4.93028 8.29237 3.47266 6.5 3.47266C4.70762 3.47266 3.25 4.93028 3.25 6.72266C3.25 8.51503 4.70762 9.97266 6.5 9.97266C8.29237 9.97266 9.75 8.51503 9.75 6.72266ZM6.5 4.77266C5.42305 4.77266 4.55 5.6457 4.55 6.72266C4.55 7.79961 5.42305 8.67266 6.5 8.67266C7.57696 8.67266 8.45 7.79961 8.45 6.72266C8.45 5.6457 7.57696 4.77266 6.5 4.77266Z" fill="white"/>
</svg>
