<svg width="12" height="13" viewBox="0 0 12 13" fill="none" xmlns="http://www.w3.org/2000/svg">
<path fill-rule="evenodd" clip-rule="evenodd" d="M1.4459 3.11098C0.646451 3.11098 0 2.46344 0 1.6664C0 0.869359 0.647292 0.222656 1.4459 0.222656C2.24283 0.222656 2.89096 0.870199 2.89096 1.6664C2.89096 2.46344 2.24283 3.11098 1.4459 3.11098ZM2.71091 12.2226H0.231029V4.25055H2.71091V12.2226ZM9.52176 12.2226H12V7.85026C12 5.70355 11.5359 4.05235 9.02495 4.05235C7.81863 4.05235 7.00993 4.71333 6.67872 5.33988H6.6451V4.25056H4.26609V12.2226H6.74429V8.2786C6.74429 7.23883 6.94268 6.23183 8.23306 6.23183C9.50495 6.23183 9.52176 7.42109 9.52176 8.34579V12.2226Z" fill="white"/>
</svg>
