<svg width="138" height="55" viewBox="0 0 138 55" fill="none" xmlns="http://www.w3.org/2000/svg">
<path d="M58.6934 54.8257V42.5513H66.154V43.3696H59.6421V48.1932H65.2052V49.0115H59.6421V53.9643H66.154V54.7826H58.6934V54.8257Z" fill="#FF0000"/>
<path d="M76.3318 54.8257L69.2593 44.1448V54.8257H68.3105V42.5513H69.2593L76.3318 53.1891V42.5513H77.2805V54.8257H76.3318Z" fill="#FF0000"/>
<path d="M80.3857 54.8257V42.5513H87.8464V43.3696H81.3345V48.1932H86.8976V49.0115H81.3345V53.9643H87.8464V54.7826H80.3857V54.8257Z" fill="#FF0000"/>
<path d="M97.2469 54.8257L94.3144 49.1838H90.9507V54.8257H90.002V42.5513H94.6595C95.1338 42.5513 95.6082 42.6374 96.0394 42.7666C96.4707 42.8958 96.8588 43.1112 97.1607 43.4126C97.4626 43.671 97.7213 44.0156 97.8938 44.4463C98.0663 44.877 98.1526 45.3507 98.1526 45.8675C98.1526 46.7719 97.8938 47.5472 97.3763 48.1071C96.8588 48.6669 96.1688 49.0546 95.3063 49.1838L98.2819 54.8687H97.2469V54.8257ZM97.0745 44.7478C96.9451 44.4463 96.7726 44.1879 96.5138 43.9725C96.2551 43.7572 95.9963 43.628 95.6513 43.4988C95.3063 43.4126 94.9613 43.3696 94.5732 43.3696H90.9507V48.3224H94.5732C94.9613 48.3224 95.3063 48.2793 95.6513 48.1932C95.9963 48.1071 96.2551 47.9348 96.5138 47.7194C96.7726 47.5041 96.9451 47.2457 97.0745 46.9442C97.2038 46.6427 97.2901 46.2551 97.2901 45.8245C97.2901 45.4368 97.2038 45.0492 97.0745 44.7478Z" fill="#FF0000"/>
<path d="M108.373 52.1985C108.244 52.6723 107.985 53.103 107.597 53.4906C107.209 53.9213 106.692 54.2658 106.131 54.5242C105.57 54.7826 104.967 54.9118 104.363 54.9118C103.759 54.9118 103.198 54.7826 102.681 54.5673C102.163 54.3519 101.689 54.0505 101.301 53.6198C101.042 53.3614 100.827 53.0599 100.654 52.7584C100.482 52.4569 100.395 52.1124 100.309 51.7679C100.223 51.3802 100.18 50.9496 100.18 50.4327C100.18 49.9159 100.18 49.313 100.18 48.6239C100.18 47.9348 100.18 47.3318 100.18 46.8581C100.18 46.3413 100.223 45.9106 100.309 45.523C100.395 45.1354 100.482 44.7908 100.654 44.4893C100.827 44.1879 101.042 43.8864 101.301 43.628C101.689 43.2404 102.163 42.8958 102.681 42.6805C103.198 42.4651 103.759 42.3359 104.363 42.3359C104.923 42.3359 105.398 42.4221 105.872 42.5943C106.347 42.7666 106.735 43.025 107.123 43.3265C107.511 43.628 107.813 44.0156 108.028 44.4463C108.287 44.877 108.46 45.3938 108.546 45.9106H107.597C107.425 45.0492 107.037 44.4032 106.433 43.8864C105.872 43.4126 105.139 43.1542 104.32 43.1542C103.888 43.1542 103.457 43.2404 103.069 43.4126C102.681 43.5849 102.293 43.8003 101.991 44.1017C101.775 44.3171 101.603 44.5324 101.473 44.7908C101.344 45.0492 101.258 45.3507 101.172 45.6522C101.128 45.9967 101.085 46.3843 101.042 46.8581C101.042 47.3318 100.999 47.8917 100.999 48.5377C100.999 49.1838 100.999 49.7437 101.042 50.2174C101.042 50.6912 101.085 51.0788 101.172 51.4233C101.215 51.7679 101.344 52.0693 101.473 52.2847C101.603 52.5431 101.775 52.7584 101.991 52.9738C102.293 53.2752 102.638 53.5336 103.069 53.6629C103.457 53.8351 103.888 53.9213 104.32 53.9213C104.794 53.9213 105.268 53.8351 105.7 53.6198C106.131 53.4044 106.519 53.103 106.864 52.7154C107.123 52.3708 107.338 52.0263 107.425 51.6387C107.554 51.251 107.597 50.8204 107.597 50.2605V49.1407H104.363V48.3224H108.589V50.3035C108.589 51.1649 108.546 51.7248 108.373 52.1985Z" fill="#FF0000"/>
<path d="M113.851 49.7006V54.7826H112.902V49.7006L109.279 42.5082H110.271L113.376 48.71L116.438 42.5082H117.43L113.851 49.7006Z" fill="#FF0000"/>
<path fill-rule="evenodd" clip-rule="evenodd" d="M127.65 53.0168L127.607 53.0599C127.348 53.3614 127.089 53.6198 126.744 53.8782C126.27 54.2227 126.356 54.3519 125.537 54.3519C125.45 54.395 125.278 54.5242 125.149 54.5242H125.105C124.847 54.5242 124.89 54.395 124.502 54.4381C124.114 54.4811 124.286 54.395 123.984 54.6103H123.553C123.424 54.6965 123.251 54.8257 123.079 54.7395C122.992 54.6965 122.949 54.6534 122.863 54.5673C122.82 54.5242 122.69 54.4811 122.647 54.4381L122.518 54.5242V54.3519C122.518 54.2658 122.561 54.3089 122.561 54.2227C122.561 54.1366 122.389 53.9643 122.345 53.8782C122.389 53.8351 122.475 53.7059 122.475 53.6198V53.4044C122.475 53.2322 122.087 52.9307 121.957 52.5C121.785 51.897 121.699 52.0263 121.44 51.6386C121.397 51.5956 121.397 51.5525 121.354 51.5094C123.38 52.3277 125.407 52.8876 127.65 53.0168ZM119.887 47.6333C120.017 47.8056 120.06 48.064 120.189 48.2363C120.405 48.5377 120.836 49.0546 120.836 49.5283V49.5714C120.836 49.7006 120.793 50.0021 120.879 50.1743C120.965 50.3466 121.009 50.4758 121.009 50.7342V50.7773C123.294 51.6386 125.58 52.3277 128.21 52.3708C128.254 52.3277 128.34 52.2416 128.383 52.1985C128.599 52.0693 128.814 51.3372 128.9 51.0357L128.771 50.9496C129.116 50.4327 129.72 50.6481 130.065 50.1313L130.108 49.6144C126.27 49.959 123.122 48.9253 119.887 47.6333ZM136.275 47.9348C136.232 48.064 136.145 48.1501 136.059 48.2793C135.93 48.4947 135.887 48.6669 135.8 48.8823C135.714 49.0976 135.585 49.313 135.499 49.4852C135.412 49.7006 135.369 49.9159 135.24 50.1313C135.154 50.3466 135.067 50.5189 134.852 50.6481C134.722 50.7342 134.593 50.6481 134.464 50.7342C134.334 50.7773 134.334 50.8634 134.119 50.8634H134.032C133.817 50.8634 133.429 50.3897 133.429 50.1313C133.429 50.0021 133.558 49.959 133.558 49.8728C133.558 49.7006 133.429 49.5714 133.429 49.313C133.429 49.1407 133.472 49.0115 133.558 48.9253C134.42 48.6239 135.326 48.3224 136.275 47.9348ZM120.448 44.4893C120.275 44.8339 119.93 44.92 119.844 45.3507C119.801 45.6091 119.758 45.8675 119.672 46.1259C119.585 46.3413 119.585 46.5566 119.585 46.815C122.906 48.1501 126.097 49.313 130.108 48.8823C130.108 48.8392 130.108 48.7961 130.108 48.71C130.108 48.4516 129.979 48.5808 129.979 48.3655V48.3224C129.979 48.1071 130.539 47.8486 130.712 47.6764C130.927 47.461 131.186 47.2026 131.445 47.0304C131.704 46.9011 132.178 46.7719 132.35 46.5566C132.48 46.4274 132.911 45.9536 132.911 45.7383V45.6952V45.6522C127.865 46.9442 124.2 45.9106 120.448 44.4893ZM134.291 46.7289C134.377 46.4705 134.42 46.4705 134.636 46.3843C134.765 46.2982 134.981 46.2982 135.154 46.2121C135.369 46.1259 135.369 45.9967 135.542 45.9106C135.714 45.8244 135.844 45.8244 135.93 45.6091C136.016 45.3938 136.059 45.3507 136.232 45.2215C136.447 45.0923 136.49 45.0923 136.447 44.7908C136.404 44.6185 136.62 44.4463 136.749 44.4463C136.749 44.5324 136.922 45.0062 136.965 45.1784C137.008 45.3938 137.094 45.7383 137.094 45.9967V46.169C137.094 46.2982 137.008 46.3843 136.922 46.3843C136.835 46.3843 136.835 46.3413 136.835 46.2551H136.706C136.706 46.4274 136.749 46.5566 136.706 46.6858C136.663 46.8581 136.577 46.815 136.534 46.9442C136.534 46.9873 136.49 47.0304 136.49 47.0734C135.671 47.418 134.895 47.7194 134.119 47.9779L134.032 47.1596C134.032 47.0734 134.248 46.8581 134.291 46.7289ZM119.025 40.5271C119.154 40.6993 119.154 40.8285 119.327 40.9578C119.413 41.0439 119.629 41.2592 119.672 41.3023C119.715 41.3884 119.844 41.8622 119.844 41.8622C119.93 41.9483 119.93 41.9052 119.974 42.0775C120.017 42.1637 120.06 42.2498 120.103 42.3359C120.146 42.4221 120.319 42.7666 120.319 42.8527V42.9389C120.319 43.0681 120.189 43.025 120.189 43.1973V43.2404C120.189 43.4126 120.275 43.5418 120.362 43.7141C124.114 45.1784 127.736 46.2982 132.782 45.0062V43.9725V43.8433C132.782 43.5418 132.566 43.671 132.48 43.4557C132.437 43.3696 132.437 43.2834 132.437 43.1973C132.437 43.0681 132.35 43.025 132.35 42.9389V42.4221C127.003 43.628 123.165 42.1637 119.025 40.5271ZM108.028 34.1099C108.157 34.2391 108.244 34.3253 108.287 34.4114C108.157 34.6267 108.244 34.7129 108.33 34.8421V35.0574C108.373 35.1436 108.804 35.402 108.934 35.4881C109.063 35.5742 109.106 35.6604 109.192 35.7465C109.279 35.8326 109.408 35.8757 109.494 35.9188C109.753 36.0911 109.753 36.3064 109.969 36.4356C110.055 36.4787 110.572 36.7801 110.659 36.7801C111.047 36.7801 111.176 36.4356 111.909 36.4356H111.995C112.254 36.4356 112.47 36.4356 112.729 36.4787C112.987 36.4787 113.16 36.6509 113.289 36.6509H113.332C113.419 36.6509 113.591 36.4356 113.807 36.4356C114.152 36.4356 114.022 36.2633 114.281 36.2203C114.454 36.1772 114.454 36.2633 114.54 36.2203C114.669 36.1772 114.583 36.1341 114.755 36.0911C114.971 36.0049 115.1 36.0049 115.402 36.0049H115.661C116.782 36.0049 116.394 36.9955 116.912 36.9955H116.955C117.17 36.9955 117.3 36.9524 117.472 36.9524C117.731 36.9524 117.904 36.8232 117.947 36.8232C117.99 36.8232 118.162 37.1247 118.292 37.2108C118.55 37.34 118.507 37.3831 118.637 37.5984C118.55 37.7707 118.594 37.7707 118.55 38.0291C118.55 38.1583 118.421 38.2014 118.421 38.4167C118.421 38.589 118.507 38.5029 118.464 38.6321C118.464 38.7182 118.421 38.8043 118.378 38.8905C118.335 39.0197 118.249 39.2781 118.076 39.2781C118.076 39.3642 118.076 39.4504 118.119 39.4934C118.378 39.5796 118.637 39.7088 118.939 39.7949C123.035 41.4315 126.787 42.9389 132.092 41.776V41.6899C132.092 41.6468 132.264 41.087 132.307 41.0439C132.437 40.8716 132.523 40.7855 132.652 40.5701C132.695 40.4409 132.739 40.3979 132.739 40.2687C132.782 40.0964 132.825 40.1825 132.954 40.0533C133.127 39.9241 133.256 39.7518 133.342 39.5796C133.429 39.4504 133.558 39.192 133.687 39.1058C133.817 38.9766 133.946 38.8474 134.075 38.6751C134.162 38.589 134.248 38.5029 134.334 38.4167C127.693 40.6132 123.424 38.8905 118.637 36.9955C115.661 35.7896 112.34 34.4545 108.028 34.1099ZM107.252 30.7075C107.252 30.7506 107.252 30.8368 107.209 30.9229C107.122 31.1382 107.165 31.1382 107.036 31.3105C106.993 31.3536 106.777 31.612 106.777 31.612C106.777 31.6981 106.95 32.0857 107.036 32.1719C106.993 32.258 106.95 32.3011 106.95 32.4303V32.7317C107.122 32.7748 107.079 33.0332 107.252 33.0332H107.424L107.467 33.3347L107.597 33.4208C112.254 33.6792 115.79 35.1005 119.068 36.3925C124.027 38.3737 128.512 40.1825 135.8 37.2539C136.145 36.9094 136.404 36.5217 136.663 36.048C136.749 35.8757 136.792 35.6173 136.879 35.402C136.965 35.1866 137.051 35.0144 137.137 34.799C137.224 34.6267 137.353 34.4114 137.396 34.2391C137.439 34.0669 137.439 33.9807 137.439 33.8515C129.073 37.6846 124.243 35.7465 118.809 33.5931C115.445 32.3011 111.952 30.9229 107.252 30.7075ZM108.071 27.3482C108.028 27.3913 108.028 27.3913 107.985 27.4344C107.855 27.6066 107.252 28.5111 107.252 28.6833H107.381V28.6403H107.424C107.467 28.7264 107.597 28.9418 107.597 28.9848C107.597 29.114 107.424 29.2002 107.424 29.3724V29.5016C107.424 29.5878 107.51 29.6308 107.51 29.8031V30.0615C112.211 30.3199 115.704 31.7412 118.982 33.0332C124.329 35.1866 129.073 37.0816 137.396 33.1624C137.396 33.0332 137.439 33.0332 137.439 32.861C136.965 32.9902 137.224 32.8179 136.879 33.1194C136.749 33.2055 136.447 33.2055 136.232 33.2486C135.973 33.2916 135.757 33.2916 135.585 33.4208C135.499 33.4639 135.455 33.55 135.326 33.5931C135.154 33.6362 135.197 33.55 135.024 33.55H134.981C134.852 33.55 134.636 33.8946 134.377 33.7654C134.248 33.7223 133.946 33.4208 133.946 33.2916H133.774C133.86 33.2055 134.032 33.1194 134.032 33.0332C134.032 32.8179 133.687 32.7748 133.515 32.4303C133.429 32.258 133.299 32.3011 133.17 32.2149C133.127 32.1719 133.084 32.1288 133.04 32.0857C127.175 33.6362 123.165 31.9996 118.766 30.2338C115.661 28.9848 112.34 27.6928 108.071 27.3482ZM111.09 24.3765C111.09 24.4627 111.133 24.5057 111.133 24.5057C111.133 24.8072 110.227 25.1948 109.882 25.281C109.58 25.324 109.537 25.5394 109.365 25.7978C109.063 26.3146 109.02 26.0562 108.804 26.2715C108.675 26.4007 108.632 26.573 108.545 26.7453C112.685 27.1329 115.92 28.4249 118.939 29.6308C123.079 31.3105 126.874 32.8179 132.264 31.5689C132.178 31.5258 132.178 31.612 132.092 31.4828C131.833 31.1382 131.919 31.0521 131.747 30.6645C131.531 30.0615 130.884 30.363 130.841 29.2863C130.841 29.2432 130.841 29.2002 130.841 29.2002C126.097 29.8893 122.561 28.468 118.68 26.9176C116.437 25.927 113.979 24.9364 111.09 24.3765ZM118.378 21.9217H118.249C118.162 21.9217 118.162 21.9647 118.162 22.0078H118.076C117.99 22.0078 117.99 21.9217 117.86 21.9217C117.731 21.9217 117.645 22.137 117.429 22.137C117.257 22.137 117.214 22.0078 117.084 22.0078H116.308C115.92 22.0078 115.489 22.137 115.23 22.3093C114.712 22.3093 114.755 22.6107 114.41 22.6107H114.367C114.324 22.6107 114.195 22.5246 114.152 22.4815C114.065 22.4815 114.065 22.5246 114.022 22.5246C114.022 22.5246 113.807 22.3954 113.419 22.3954L113.289 22.137C113.074 22.1801 113.074 22.1801 112.987 22.3523C112.944 22.3954 112.901 22.4815 112.858 22.5246C112.815 22.6107 112.815 22.6538 112.772 22.7399C112.599 22.9984 112.384 23.0414 112.082 23.1706C111.65 23.3429 111.694 23.3429 111.478 23.6874C111.478 23.7305 111.435 23.7736 111.392 23.8167C114.281 24.4196 116.696 25.3671 118.982 26.3146C122.69 27.7789 126.097 29.1571 130.582 28.5541C130.367 28.3388 130.151 28.2096 129.979 27.8651L130.108 27.7358L129.245 26.5299V26.4007C129.03 26.0993 128.555 25.5394 128.426 25.1948C128.599 25.324 128.987 26.0993 129.159 26.0993C129.245 26.0993 129.375 25.8409 129.375 25.7978V25.4963V25.2379C129.375 25.1948 129.03 24.678 129.03 24.4196C128.771 24.4196 128.771 24.5057 128.555 24.5057H128.34C128.167 24.5057 128.038 24.2904 127.779 24.2904H127.693C127.305 24.2904 127.391 24.7211 126.744 24.5919C126.356 24.5057 126.054 24.3335 125.623 24.3335C125.58 24.3765 125.58 24.3765 125.494 24.3765H125.407C125.364 24.3765 125.235 24.2904 125.149 24.2473C125.062 24.2904 125.019 24.2904 124.933 24.2904H124.588C124.502 24.2904 124.372 23.9028 123.812 23.9028C123.553 23.9028 123.337 23.9889 123.208 24.1181C122.949 24.3765 123.294 24.6349 123.294 24.678C123.294 24.7641 123.122 24.9795 122.992 24.9795C122.863 25.0226 122.647 24.8934 122.561 24.8503C122.216 24.678 122.087 24.5488 121.612 24.5919L121.397 24.3765V24.2043C121.267 23.9889 121.138 23.9889 120.879 23.9028C120.448 23.7305 120.405 23.9459 120.275 23.9459C120.06 23.9459 119.758 23.6444 119.672 23.6013V23.4721C119.499 23.4721 119.284 23.429 119.284 23.2568C119.284 23.1276 119.629 22.9984 119.629 22.783C119.629 22.6107 119.499 22.4815 119.456 22.3523C119.542 22.2231 119.715 22.137 119.715 22.0078C119.715 21.9647 119.672 21.9217 119.629 21.9217C119.585 21.9217 119.499 21.9647 119.456 22.0078C119.327 21.9217 119.284 21.7924 119.111 21.7924H119.068C118.939 21.7924 118.852 21.9217 118.723 21.9217C118.68 22.0078 118.55 21.9217 118.378 21.9217Z" fill="#22B04C"/>
<path d="M44.333 33.8085V30.7937H51.9661V33.8085H44.333Z" fill="white"/>
<path d="M57.2695 24.8072V39.3642H53.8195V24.8072H49.2051V21.7494H61.8838V24.8072H57.2695Z" fill="white"/>
<path d="M72.0622 39.3642L68.6122 32.3441H66.1541V39.3642H62.7041V21.7494H69.6041C70.5097 21.7494 71.286 21.8786 72.0191 22.1801C72.7091 22.4815 73.3128 22.8691 73.8303 23.3429C74.3047 23.8166 74.6929 24.4196 74.9516 25.0656C75.2104 25.7116 75.3397 26.4007 75.3397 27.176C75.3397 27.822 75.2535 28.3819 75.081 28.8556C74.9085 29.3294 74.6928 29.8031 74.391 30.1907C74.0891 30.5783 73.7441 30.9229 73.356 31.1813C72.9679 31.4397 72.5797 31.655 72.1485 31.8273L76.0728 39.4073H72.0622V39.3642ZM71.1997 25.4532C70.7254 25.0225 70.1216 24.8072 69.3885 24.8072H66.1541V29.4155H69.3885C70.1647 29.4155 70.7685 29.2002 71.1997 28.7695C71.6741 28.3388 71.8897 27.7789 71.8897 27.0898C71.8897 26.4438 71.6741 25.8839 71.1997 25.4532Z" fill="white"/>
<path d="M89.355 32.6887C89.355 33.3347 89.2687 33.9807 89.1825 34.5406C89.0531 35.1005 88.8806 35.6604 88.665 36.1772C88.4062 36.694 88.0612 37.1678 87.63 37.5985C86.9831 38.2445 86.2931 38.7182 85.5168 39.0197C84.7406 39.3642 83.8781 39.4934 82.8431 39.4934C81.8512 39.4934 80.9456 39.3212 80.1693 39.0197C79.3931 38.6752 78.7031 38.2014 78.0562 37.5985C77.625 37.1678 77.28 36.694 77.0212 36.1772C76.7625 35.6604 76.6331 35.1436 76.5037 34.5406C76.4175 33.9807 76.3312 33.3347 76.3312 32.6887C76.3312 32.0427 76.2881 31.3105 76.2881 30.5784C76.2881 29.8031 76.2881 29.114 76.3312 28.468C76.3312 27.822 76.4175 27.176 76.5037 26.6161C76.59 26.0562 76.7625 25.4963 77.0212 24.9795C77.28 24.4627 77.625 23.9889 78.0562 23.5583C78.7031 22.9122 79.3931 22.4385 80.1693 22.137C80.9456 21.7925 81.8512 21.6633 82.8431 21.6633C83.835 21.6633 84.7406 21.8355 85.5168 22.137C86.2931 22.4815 86.9831 22.9553 87.63 23.5583C88.0612 23.9889 88.4062 24.4627 88.665 24.9795C88.9237 25.4963 89.0962 26.0131 89.1825 26.6161C89.2687 27.176 89.355 27.822 89.355 28.468C89.355 29.114 89.3981 29.8462 89.3981 30.5784C89.355 31.3105 89.355 32.0427 89.355 32.6887ZM85.905 28.468C85.8618 27.9081 85.8187 27.4774 85.7756 27.0898C85.6893 26.7453 85.6031 26.4438 85.5168 26.2285C85.3875 26.0131 85.2581 25.7978 85.0856 25.6255C84.8268 25.324 84.525 25.1087 84.1368 24.9364C83.7487 24.7642 83.3606 24.678 82.8431 24.678C82.3687 24.678 81.9375 24.7642 81.5493 24.9364C81.1612 25.1087 80.8593 25.324 80.6006 25.6255C80.4281 25.7978 80.2987 26.0131 80.2125 26.2285C80.1262 26.4438 79.9968 26.7453 79.9537 27.0898C79.8675 27.4344 79.8243 27.9081 79.8243 28.468C79.7812 29.0279 79.7812 29.717 79.7812 30.5784C79.7812 31.4397 79.7812 32.1288 79.8243 32.6887C79.8675 33.2486 79.9106 33.6793 79.9537 34.0669C80.04 34.4114 80.1262 34.7129 80.2125 34.9282C80.2987 35.1436 80.4712 35.3589 80.6006 35.5312C80.8593 35.8327 81.1612 36.048 81.5493 36.2203C81.9375 36.3925 82.3687 36.4787 82.8431 36.4787C83.3175 36.4787 83.7487 36.3925 84.1368 36.2203C84.525 36.048 84.8268 35.8327 85.0856 35.5312C85.2581 35.3589 85.3875 35.1436 85.5168 34.9282C85.6462 34.7129 85.7325 34.4114 85.7756 34.0669C85.8618 33.7223 85.905 33.2486 85.905 32.6887C85.9481 32.1288 85.9481 31.4397 85.9481 30.5784C85.9481 29.717 85.905 29.0279 85.905 28.468Z" fill="white"/>
<path d="M101.343 39.3642L94.3572 28.5541V39.3642H90.9072V21.7494H93.9691L100.955 32.5595V21.7494H104.405V39.3642H101.343Z" fill="white"/>
<path d="M11.9893 22.6969V26.573V39.3642H15.4393V28.5972L27.428 35.6604L35.9668 30.6214V26.7453L27.428 31.8273L11.9893 22.6969Z" fill="#22B04C"/>
<path d="M27.428 24.5057L11.9893 15.4184V19.2514L27.428 28.3388L39.4168 21.2756V24.7211V28.5972V39.3642H42.8236V26.573V22.6969V19.2514V18.0886V15.4184L27.428 24.5057Z" fill="#22B04C"/>
<path d="M47.3512 42.2498C42.8231 48.3224 35.5781 52.2416 27.4275 52.2416C13.6706 52.2416 2.54437 41.13 2.54437 27.3913C2.54437 13.6526 13.6706 2.54102 27.4275 2.54102C38.1656 2.54102 47.3081 9.34578 50.8012 18.8638H53.475C49.8956 7.92453 39.5887 0 27.4275 0C12.2906 0 0 12.2744 0 27.3913C0 42.5082 12.2906 54.7826 27.4275 54.7826C37.0875 54.7826 45.5831 49.7867 50.4562 42.2929H47.3512V42.2498Z" fill="white"/>
<path d="M108.373 19.3806C108.287 19.596 108.158 19.8113 107.985 19.9836C107.813 20.1559 107.64 20.2851 107.381 20.3712C107.166 20.4573 106.907 20.5004 106.648 20.5004C106.39 20.5004 106.174 20.4573 105.915 20.3712C105.7 20.2851 105.484 20.1559 105.311 19.9836C105.139 19.8113 105.01 19.639 104.923 19.3806C104.837 19.1653 104.794 18.9069 104.794 18.6485C104.794 18.3901 104.837 18.1747 104.923 17.9163C105.01 17.701 105.139 17.4856 105.311 17.3134C105.484 17.1411 105.656 17.0119 105.915 16.9258C106.131 16.8396 106.39 16.7965 106.648 16.7965C106.907 16.7965 107.123 16.8396 107.381 16.9258C107.597 17.0119 107.813 17.1411 107.985 17.3134C108.158 17.4856 108.287 17.6579 108.373 17.9163C108.46 18.1317 108.503 18.3901 108.503 18.6485C108.503 18.9069 108.46 19.1653 108.373 19.3806ZM108.158 18.0455C108.071 17.8302 107.942 17.6579 107.813 17.5287C107.683 17.3995 107.511 17.2703 107.295 17.1842C107.08 17.098 106.907 17.055 106.691 17.055C106.476 17.055 106.26 17.098 106.088 17.1842C105.872 17.2703 105.743 17.3995 105.57 17.5287C105.441 17.6579 105.311 17.8302 105.225 18.0455C105.139 18.2609 105.096 18.4331 105.096 18.6485C105.096 18.8638 105.139 19.0792 105.225 19.2514C105.311 19.4668 105.441 19.639 105.57 19.7682C105.7 19.8975 105.872 20.0267 106.088 20.1128C106.303 20.1989 106.476 20.242 106.691 20.242C106.907 20.242 107.123 20.1989 107.295 20.1128C107.511 20.0267 107.64 19.8975 107.813 19.7682C107.942 19.639 108.071 19.4668 108.158 19.2514C108.244 19.0361 108.287 18.8638 108.287 18.6485C108.287 18.4331 108.244 18.2178 108.158 18.0455ZM107.166 19.6821L106.648 18.8207H106.303V19.6821H106.088V17.6579H106.735C106.821 17.6579 106.907 17.6579 106.993 17.701C107.08 17.744 107.123 17.7871 107.209 17.8302C107.252 17.8733 107.295 17.9594 107.338 18.0025C107.381 18.0886 107.381 18.1747 107.381 18.2609C107.381 18.4331 107.338 18.5193 107.252 18.6485C107.166 18.7346 107.036 18.8207 106.907 18.8638L107.425 19.7252H107.166V19.6821ZM107.036 17.9594C106.95 17.8733 106.864 17.8302 106.735 17.8302H106.346V18.6054H106.735C106.864 18.6054 106.95 18.5623 107.036 18.4762C107.123 18.3901 107.166 18.3039 107.166 18.2178C107.166 18.1317 107.123 18.0455 107.036 17.9594Z" fill="white"/>
<path fill-rule="evenodd" clip-rule="evenodd" d="M121.871 21.7063C121.871 21.7925 121.914 21.8786 121.914 21.9647C122.044 22.0078 122.173 22.0509 122.302 22.137C122.734 21.8786 123.251 21.7494 123.812 21.7494C124.114 21.7494 124.372 21.7925 124.631 21.8786C125.709 20.6296 127.262 19.8113 129.073 19.8113C132.264 19.8113 134.852 22.3954 134.852 25.5824C134.852 27.0037 134.334 28.2527 133.515 29.2863C133.644 29.4586 133.73 29.6739 133.817 29.8893C133.86 29.9754 133.86 30.0615 133.903 30.1477C134.075 30.2338 134.248 30.3199 134.42 30.4491C134.765 30.6214 135.024 30.8798 135.24 31.1382C135.283 31.1813 135.283 31.1813 135.326 31.2244C135.455 31.1813 135.542 31.1813 135.628 31.1813C135.671 30.6645 135.844 30.1046 136.102 29.5878C136.534 28.8556 137.18 28.2957 138 27.9081C137.482 27.2621 137.18 26.4438 137.18 25.4963C137.18 24.635 137.482 23.8167 138 23.0845C137.18 22.783 136.534 22.2231 136.102 21.4048C135.671 20.6727 135.542 19.8113 135.585 18.95C134.765 19.0792 133.903 18.95 133.127 18.4331C132.307 18.0025 131.747 17.3564 131.445 16.5382C130.798 17.055 129.935 17.3564 129.03 17.3564C128.124 17.3564 127.305 17.055 126.615 16.5382C126.313 17.3564 125.752 18.0025 124.933 18.4331C124.114 18.95 123.251 19.0792 122.475 18.95C122.561 19.8113 122.389 20.6727 121.957 21.4048C122 21.534 121.914 21.6202 121.871 21.7063Z" fill="#FCCB3A"/>
<path fill-rule="evenodd" clip-rule="evenodd" d="M127.65 53.0168L127.607 53.0599C127.348 53.3614 127.089 53.6198 126.744 53.8782C126.27 54.2227 126.356 54.3519 125.537 54.3519C125.45 54.395 125.278 54.5242 125.149 54.5242H125.105C124.847 54.5242 124.89 54.395 124.502 54.4381C124.114 54.4811 124.286 54.395 123.984 54.6103H123.553C123.424 54.6965 123.251 54.8257 123.079 54.7395C122.992 54.6965 122.949 54.6534 122.863 54.5673C122.82 54.5242 122.69 54.4811 122.647 54.4381L122.518 54.5242V54.3519C122.518 54.2658 122.561 54.3089 122.561 54.2227C122.561 54.1366 122.389 53.9643 122.345 53.8782C122.389 53.8351 122.475 53.7059 122.475 53.6198V53.4044C122.475 53.2322 122.087 52.9307 121.957 52.5C121.785 51.8971 121.699 52.0263 121.44 51.6386C121.397 51.5956 121.397 51.5525 121.354 51.5094C123.38 52.3277 125.407 52.8876 127.65 53.0168ZM119.887 47.6333C120.017 47.8056 120.06 48.064 120.189 48.2363C120.405 48.5377 120.836 49.0546 120.836 49.5283V49.5714C120.836 49.7006 120.793 50.0021 120.879 50.1743C120.965 50.3466 121.009 50.4758 121.009 50.7342V50.7773C123.294 51.6386 125.58 52.3277 128.21 52.3708C128.254 52.3277 128.34 52.2416 128.383 52.1985C128.599 52.0693 128.814 51.3372 128.9 51.0357L128.771 50.9496C129.116 50.4327 129.72 50.6481 130.065 50.1313L130.108 49.6144C126.27 49.959 123.122 48.9254 119.887 47.6333ZM136.275 47.9348C136.232 48.064 136.145 48.1501 136.059 48.2793C135.93 48.4947 135.887 48.6669 135.8 48.8823C135.714 49.0976 135.585 49.313 135.499 49.4852C135.412 49.7006 135.369 49.9159 135.24 50.1313C135.154 50.3466 135.067 50.5189 134.852 50.6481C134.722 50.7342 134.593 50.6481 134.464 50.7342C134.334 50.7773 134.334 50.8634 134.119 50.8634H134.032C133.817 50.8634 133.429 50.3897 133.429 50.1313C133.429 50.0021 133.558 49.959 133.558 49.8729C133.558 49.7006 133.429 49.5714 133.429 49.313C133.429 49.1407 133.472 49.0115 133.558 48.9254C134.42 48.6239 135.326 48.3224 136.275 47.9348ZM120.448 44.4893C120.275 44.8339 119.93 44.92 119.844 45.3507C119.801 45.6091 119.758 45.8675 119.672 46.1259C119.585 46.3413 119.585 46.5566 119.585 46.815C122.906 48.1501 126.097 49.313 130.108 48.8823C130.108 48.8392 130.108 48.7962 130.108 48.71C130.108 48.4516 129.979 48.5808 129.979 48.3655V48.3224C129.979 48.1071 130.539 47.8487 130.712 47.6764C130.927 47.461 131.186 47.2026 131.445 47.0304C131.704 46.9012 132.178 46.772 132.35 46.5566C132.48 46.4274 132.911 45.9537 132.911 45.7383V45.6952V45.6522C127.865 46.9442 124.2 45.9106 120.448 44.4893ZM134.291 46.7289C134.377 46.4705 134.42 46.4705 134.636 46.3843C134.765 46.2982 134.981 46.2982 135.154 46.2121C135.369 46.1259 135.369 45.9967 135.542 45.9106C135.714 45.8245 135.844 45.8245 135.93 45.6091C136.016 45.3938 136.059 45.3507 136.232 45.2215C136.447 45.0923 136.49 45.0923 136.447 44.7908C136.404 44.6185 136.62 44.4463 136.749 44.4463C136.749 44.5324 136.922 45.0062 136.965 45.1784C137.008 45.3938 137.094 45.7383 137.094 45.9967V46.169C137.094 46.2982 137.008 46.3843 136.922 46.3843C136.835 46.3843 136.835 46.3413 136.835 46.2551H136.706C136.706 46.4274 136.749 46.5566 136.706 46.6858C136.663 46.8581 136.577 46.815 136.534 46.9442C136.534 46.9873 136.49 47.0304 136.49 47.0734C135.671 47.418 134.895 47.7194 134.119 47.9779L134.032 47.1596C134.032 47.0734 134.248 46.8581 134.291 46.7289ZM119.025 40.5271C119.154 40.6994 119.154 40.8286 119.327 40.9578C119.413 41.0439 119.629 41.2592 119.672 41.3023C119.715 41.3884 119.844 41.8622 119.844 41.8622C119.93 41.9483 119.93 41.9053 119.974 42.0775C120.017 42.1637 120.06 42.2498 120.103 42.3359C120.146 42.4221 120.319 42.7666 120.319 42.8528V42.9389C120.319 43.0681 120.189 43.025 120.189 43.1973V43.2404C120.189 43.4126 120.275 43.5418 120.362 43.7141C124.114 45.1784 127.736 46.2982 132.782 45.0062V43.9725V43.8433C132.782 43.5418 132.566 43.671 132.48 43.4557C132.437 43.3696 132.437 43.2834 132.437 43.1973C132.437 43.0681 132.35 43.025 132.35 42.9389V42.4221C127.003 43.628 123.165 42.1637 119.025 40.5271ZM108.028 34.1099C108.157 34.2391 108.244 34.3253 108.287 34.4114C108.157 34.6268 108.244 34.7129 108.33 34.8421V35.0574C108.373 35.1436 108.804 35.402 108.934 35.4881C109.063 35.5742 109.106 35.6604 109.192 35.7465C109.279 35.8327 109.408 35.8757 109.494 35.9188C109.753 36.0911 109.753 36.3064 109.969 36.4356C110.055 36.4787 110.572 36.7802 110.659 36.7802C111.047 36.7802 111.176 36.4356 111.909 36.4356H111.995C112.254 36.4356 112.47 36.4356 112.729 36.4787C112.987 36.4787 113.16 36.6509 113.289 36.6509H113.332C113.419 36.6509 113.591 36.4356 113.807 36.4356C114.152 36.4356 114.022 36.2633 114.281 36.2203C114.454 36.1772 114.454 36.2633 114.54 36.2203C114.669 36.1772 114.583 36.1341 114.755 36.0911C114.971 36.0049 115.1 36.0049 115.402 36.0049H115.661C116.782 36.0049 116.394 36.9955 116.912 36.9955H116.955C117.17 36.9955 117.3 36.9524 117.472 36.9524C117.731 36.9524 117.904 36.8232 117.947 36.8232C117.99 36.8232 118.162 37.1247 118.292 37.2108C118.55 37.34 118.507 37.3831 118.637 37.5984C118.55 37.7707 118.594 37.7707 118.55 38.0291C118.55 38.1583 118.421 38.2014 118.421 38.4167C118.421 38.589 118.507 38.5029 118.464 38.6321C118.464 38.7182 118.421 38.8044 118.378 38.8905C118.335 39.0197 118.249 39.2781 118.076 39.2781C118.076 39.3642 118.076 39.4504 118.119 39.4934C118.378 39.5796 118.637 39.7088 118.939 39.7949C123.035 41.4315 126.787 42.9389 132.092 41.7761V41.6899C132.092 41.6469 132.264 41.087 132.307 41.0439C132.437 40.8716 132.523 40.7855 132.652 40.5701C132.695 40.4409 132.739 40.3979 132.739 40.2687C132.782 40.0964 132.825 40.1825 132.954 40.0533C133.127 39.9241 133.256 39.7519 133.342 39.5796C133.429 39.4504 133.558 39.192 133.687 39.1058C133.817 38.9766 133.946 38.8474 134.075 38.6752C134.162 38.589 134.248 38.5029 134.334 38.4167C127.693 40.6132 123.424 38.8905 118.637 36.9955C115.661 35.7896 112.34 34.4545 108.028 34.1099ZM107.252 30.7076C107.252 30.7506 107.252 30.8368 107.209 30.9229C107.122 31.1382 107.165 31.1382 107.036 31.3105C106.993 31.3536 106.777 31.612 106.777 31.612C106.777 31.6981 106.95 32.0857 107.036 32.1719C106.993 32.258 106.95 32.3011 106.95 32.4303V32.7318C107.122 32.7748 107.079 33.0332 107.252 33.0332H107.424L107.467 33.3347L107.597 33.4208C112.254 33.6793 115.79 35.1005 119.068 36.3925C124.027 38.3737 128.512 40.1825 135.8 37.2539C136.145 36.9094 136.404 36.5217 136.663 36.048C136.749 35.8757 136.792 35.6173 136.879 35.402C136.965 35.1866 137.051 35.0144 137.137 34.799C137.224 34.6268 137.353 34.4114 137.396 34.2391C137.439 34.0669 137.439 33.9807 137.439 33.8515C129.073 37.6846 124.243 35.7465 118.809 33.5931C115.445 32.3011 111.952 30.9229 107.252 30.7076ZM108.071 27.3482C108.028 27.3913 108.028 27.3913 107.985 27.4344C107.855 27.6067 107.252 28.5111 107.252 28.6834H107.381V28.6403H107.424C107.467 28.7264 107.597 28.9418 107.597 28.9848C107.597 29.114 107.424 29.2002 107.424 29.3724V29.5016C107.424 29.5878 107.51 29.6309 107.51 29.8031V30.0615C112.211 30.3199 115.704 31.7412 118.982 33.0332C124.329 35.1866 129.073 37.0816 137.396 33.1624C137.396 33.0332 137.439 33.0332 137.439 32.861C136.965 32.9902 137.224 32.8179 136.879 33.1194C136.749 33.2055 136.447 33.2055 136.232 33.2486C135.973 33.2916 135.757 33.2916 135.585 33.4208C135.499 33.4639 135.455 33.55 135.326 33.5931C135.154 33.6362 135.197 33.55 135.024 33.55H134.981C134.852 33.55 134.636 33.8946 134.377 33.7654C134.248 33.7223 133.946 33.4208 133.946 33.2916H133.774C133.86 33.2055 134.032 33.1194 134.032 33.0332C134.032 32.8179 133.687 32.7748 133.515 32.4303C133.429 32.258 133.299 32.3011 133.17 32.2149C133.127 32.1719 133.084 32.1288 133.04 32.0857C127.175 33.6362 123.165 31.9996 118.766 30.2338C115.661 28.9848 112.34 27.6928 108.071 27.3482ZM111.09 24.3765C111.09 24.4627 111.133 24.5057 111.133 24.5057C111.133 24.8072 110.227 25.1948 109.882 25.281C109.58 25.324 109.537 25.5394 109.365 25.7978C109.063 26.3146 109.02 26.0562 108.804 26.2715C108.675 26.4007 108.632 26.573 108.545 26.7453C112.685 27.1329 115.92 28.4249 118.939 29.6309C123.079 31.3105 126.874 32.8179 132.264 31.5689C132.178 31.5258 132.178 31.612 132.092 31.4828C131.833 31.1382 131.919 31.0521 131.747 30.6645C131.531 30.0615 130.884 30.363 130.841 29.2863C130.841 29.2432 130.841 29.2002 130.841 29.2002C126.097 29.8893 122.561 28.468 118.68 26.9176C116.437 25.927 113.979 24.9364 111.09 24.3765ZM118.378 21.9217H118.249C118.162 21.9217 118.162 21.9647 118.162 22.0078H118.076C117.99 22.0078 117.99 21.9217 117.86 21.9217C117.731 21.9217 117.645 22.137 117.429 22.137C117.257 22.137 117.214 22.0078 117.084 22.0078H116.308C115.92 22.0078 115.489 22.137 115.23 22.3093C114.712 22.3093 114.755 22.6108 114.41 22.6108H114.367C114.324 22.6108 114.195 22.5246 114.152 22.4815C114.065 22.4815 114.065 22.5246 114.022 22.5246C114.022 22.5246 113.807 22.3954 113.419 22.3954L113.289 22.137C113.074 22.1801 113.074 22.1801 112.987 22.3523C112.944 22.3954 112.901 22.4815 112.858 22.5246C112.815 22.6108 112.815 22.6538 112.772 22.74C112.599 22.9984 112.384 23.0414 112.082 23.1706C111.65 23.3429 111.694 23.3429 111.478 23.6875C111.478 23.7305 111.435 23.7736 111.392 23.8167C114.281 24.4196 116.696 25.3671 118.982 26.3146C122.69 27.7789 126.097 29.1571 130.582 28.5542C130.367 28.3388 130.151 28.2096 129.979 27.8651L130.108 27.7359L129.245 26.5299V26.4007C129.03 26.0993 128.555 25.5394 128.426 25.1948C128.599 25.324 128.987 26.0993 129.159 26.0993C129.245 26.0993 129.375 25.8409 129.375 25.7978V25.4963V25.2379C129.375 25.1948 129.03 24.678 129.03 24.4196C128.771 24.4196 128.771 24.5057 128.555 24.5057H128.34C128.167 24.5057 128.038 24.2904 127.779 24.2904H127.693C127.305 24.2904 127.391 24.7211 126.744 24.5919C126.356 24.5057 126.054 24.3335 125.623 24.3335C125.58 24.3765 125.58 24.3765 125.494 24.3765H125.407C125.364 24.3765 125.235 24.2904 125.149 24.2473C125.062 24.2904 125.019 24.2904 124.933 24.2904H124.588C124.502 24.2904 124.372 23.9028 123.812 23.9028C123.553 23.9028 123.337 23.9889 123.208 24.1181C122.949 24.3765 123.294 24.635 123.294 24.678C123.294 24.7642 123.122 24.9795 122.992 24.9795C122.863 25.0226 122.647 24.8934 122.561 24.8503C122.216 24.678 122.087 24.5488 121.612 24.5919L121.397 24.3765V24.2043C121.267 23.9889 121.138 23.9889 120.879 23.9028C120.448 23.7305 120.405 23.9459 120.275 23.9459C120.06 23.9459 119.758 23.6444 119.672 23.6013V23.4721C119.499 23.4721 119.284 23.429 119.284 23.2568C119.284 23.1276 119.629 22.9984 119.629 22.783C119.629 22.6108 119.499 22.4815 119.456 22.3523C119.542 22.2231 119.715 22.137 119.715 22.0078C119.715 21.9647 119.672 21.9217 119.629 21.9217C119.585 21.9217 119.499 21.9647 119.456 22.0078C119.327 21.9217 119.284 21.7925 119.111 21.7925H119.068C118.939 21.7925 118.852 21.9217 118.723 21.9217C118.68 22.0078 118.55 21.9217 118.378 21.9217Z" fill="#22B04C"/>
<path fill-rule="evenodd" clip-rule="evenodd" d="M125.192 22.0939C125.408 22.0939 125.581 22.137 125.796 22.1801C126.141 22.1801 126.443 22.2662 126.659 22.3093C126.961 22.1801 127.306 22.0939 127.694 22.0939H127.78C128.125 22.0939 128.427 22.137 128.642 22.2231C128.772 22.2231 128.901 22.1801 129.031 22.1801C130.022 22.1801 130.885 22.8692 131.101 23.8167C131.101 23.8597 131.144 23.9028 131.144 23.9028C131.273 24.1612 131.489 24.5488 131.489 25.1518V25.4532V25.6686C131.489 25.7547 131.489 25.8409 131.489 25.927L131.791 26.3577C131.92 26.5299 132.006 26.7022 132.092 26.9176C132.092 26.9176 132.092 26.9176 132.136 26.9606C132.394 27.219 132.567 27.5636 132.653 27.9081C132.782 28.1235 132.912 28.3819 132.955 28.6403C133.214 28.8556 133.516 29.2002 133.731 29.6739C134.766 28.5541 135.37 27.0898 135.37 25.4532C135.37 22.0078 132.567 19.2084 129.117 19.2084C127.047 19.2084 125.236 20.1989 124.114 21.7063C124.546 21.8355 124.891 21.9217 125.192 22.0939Z" fill="#F26C11"/>
<path fill-rule="evenodd" clip-rule="evenodd" d="M127.693 22.137H127.779C128.124 22.137 128.426 22.1801 128.642 22.2662C128.771 22.2662 128.901 22.2231 129.03 22.2231C130.022 22.2231 130.884 22.9122 131.1 23.8597C131.1 23.9028 131.143 23.9459 131.143 23.9459C131.272 24.2043 131.488 24.5919 131.488 25.1948V25.4963V25.7116C131.488 25.7978 131.488 25.8839 131.488 25.9701L131.79 26.4007C131.919 26.573 132.006 26.7453 132.092 26.9606C132.092 26.9606 132.092 26.9606 132.135 27.0037C132.264 27.176 132.394 27.3482 132.48 27.5205C132.825 26.9176 133.041 26.2285 133.041 25.4963C133.041 23.3429 131.272 21.5771 129.116 21.5771C128.34 21.5771 127.607 21.7924 126.96 22.2231C127.219 22.137 127.477 22.137 127.693 22.137Z" fill="#FF0000"/>
</svg>
