<svg width="179" height="72" viewBox="0 0 179 72" fill="none" xmlns="http://www.w3.org/2000/svg">
<path d="M76.1309 71.114V55.1929H85.808V56.2543H77.3615V62.511H84.5774V63.5724H77.3615V69.9967H85.808V71.0581H76.1309V71.114Z" fill="#FF0000"/>
<path d="M99.0098 71.114L89.8361 57.2598V71.114H88.6055V55.1929H89.8361L99.0098 68.9912V55.1929H100.24V71.114H99.0098Z" fill="#FF0000"/>
<path d="M104.268 71.114V55.1929H113.945V56.2543H105.498V62.511H112.714V63.5724H105.498V69.9967H113.945V71.0581H104.268V71.114Z" fill="#FF0000"/>
<path d="M126.14 71.114L122.336 63.7959H117.973V71.114H116.742V55.1929H122.783C123.399 55.1929 124.014 55.3046 124.573 55.4722C125.133 55.6398 125.636 55.9191 126.028 56.3101C126.419 56.6453 126.755 57.0922 126.979 57.6509C127.202 58.2095 127.314 58.824 127.314 59.4944C127.314 60.6675 126.979 61.673 126.307 62.3993C125.636 63.1255 124.741 63.6283 123.622 63.7959L127.482 71.1699H126.14V71.114ZM125.916 58.0419C125.748 57.6509 125.524 57.3157 125.189 57.0364C124.853 56.757 124.517 56.5895 124.07 56.4219C123.622 56.3101 123.175 56.2543 122.672 56.2543H117.973V62.6786H122.672C123.175 62.6786 123.622 62.6227 124.07 62.511C124.517 62.3993 124.853 62.1758 125.189 61.8965C125.524 61.6172 125.748 61.282 125.916 60.891C126.084 60.4999 126.196 59.9971 126.196 59.4385C126.196 58.9357 126.084 58.433 125.916 58.0419Z" fill="#FF0000"/>
<path d="M140.571 67.7064C140.403 68.3209 140.067 68.8795 139.564 69.3823C139.06 69.9409 138.389 70.3878 137.662 70.723C136.935 71.0582 136.151 71.2258 135.368 71.2258C134.585 71.2258 133.858 71.0582 133.187 70.7789C132.516 70.4995 131.9 70.1085 131.397 69.5499C131.061 69.2147 130.781 68.8236 130.558 68.4326C130.334 68.0415 130.222 67.5946 130.11 67.1477C129.998 66.6449 129.942 66.0863 129.942 65.4159C129.942 64.7456 129.942 63.9635 129.942 63.0697C129.942 62.1759 129.942 61.3938 129.942 60.7793C129.942 60.1089 129.998 59.5503 130.11 59.0475C130.222 58.5447 130.334 58.0978 130.558 57.7068C130.781 57.3157 131.061 56.9247 131.397 56.5895C131.9 56.0867 132.516 55.6398 133.187 55.3605C133.858 55.0812 134.585 54.9136 135.368 54.9136C136.096 54.9136 136.711 55.0253 137.326 55.2488C137.941 55.4722 138.445 55.8074 138.948 56.1984C139.452 56.5895 139.843 57.0923 140.123 57.6509C140.459 58.2095 140.682 58.8799 140.794 59.5503H139.564C139.34 58.433 138.836 57.595 138.053 56.9247C137.326 56.3102 136.375 55.975 135.312 55.975C134.753 55.975 134.194 56.0867 133.69 56.3102C133.187 56.5336 132.683 56.8129 132.292 57.204C132.012 57.4833 131.788 57.7626 131.621 58.0978C131.453 58.433 131.341 58.824 131.229 59.2151C131.173 59.662 131.117 60.1648 131.061 60.7793C131.061 61.3938 131.005 62.12 131.005 62.9579C131.005 63.7959 131.005 64.5221 131.061 65.1366C131.061 65.7511 131.117 66.2539 131.229 66.7008C131.285 67.1477 131.453 67.5388 131.621 67.8181C131.788 68.1533 132.012 68.4326 132.292 68.7119C132.683 69.1029 133.131 69.4381 133.69 69.6057C134.194 69.8292 134.753 69.9409 135.312 69.9409C135.928 69.9409 136.543 69.8292 137.102 69.5499C137.662 69.2705 138.165 68.8795 138.613 68.3767C138.948 67.9298 139.228 67.4829 139.34 66.9801C139.508 66.4774 139.564 65.9187 139.564 65.1925V63.74H135.368V62.6786H140.85V65.2484C140.85 66.3656 140.794 67.0919 140.571 67.7064Z" fill="#FF0000"/>
<path d="M147.675 64.466V71.0579H146.445V64.466L141.746 55.1367H143.033L147.06 63.1811L151.032 55.1367H152.318L147.675 64.466Z" fill="#FF0000"/>
<path fill-rule="evenodd" clip-rule="evenodd" d="M165.576 68.7682L165.52 68.8241C165.184 69.2151 164.848 69.5503 164.401 69.8855C163.786 70.3324 163.898 70.5 162.835 70.5C162.723 70.5559 162.499 70.7235 162.331 70.7235H162.275C161.94 70.7235 161.996 70.5559 161.492 70.6117C160.989 70.6676 161.213 70.5559 160.821 70.8352H160.262C160.094 70.9469 159.87 71.1145 159.646 71.0028C159.534 70.9469 159.478 70.891 159.367 70.7793C159.311 70.7235 159.143 70.6676 159.087 70.6117L158.919 70.7235V70.5C158.919 70.3883 158.975 70.4441 158.975 70.3324C158.975 70.2207 158.751 69.9972 158.695 69.8855C158.751 69.8296 158.863 69.662 158.863 69.5503V69.271C158.863 69.0475 158.36 68.6565 158.192 68.0979C157.968 67.3158 157.856 67.4834 157.521 66.9806C157.465 66.9247 157.465 66.8689 157.409 66.813C160.038 67.8744 162.667 68.6006 165.576 68.7682ZM155.507 61.7853C155.675 62.0087 155.731 62.3439 155.899 62.5674C156.178 62.9584 156.738 63.6288 156.738 64.2433V64.2991C156.738 64.4667 156.682 64.8578 156.793 65.0812C156.905 65.3047 156.961 65.4723 156.961 65.8075V65.8633C159.926 66.9806 162.891 67.8744 166.303 67.9303C166.359 67.8744 166.471 67.7627 166.527 67.7068C166.806 67.5392 167.086 66.5895 167.198 66.1985L167.03 66.0868C167.478 65.4164 168.261 65.6957 168.708 65.0254L168.764 64.355C163.786 64.8019 159.702 63.4612 155.507 61.7853ZM176.763 62.1763C176.707 62.3439 176.595 62.4556 176.483 62.6232C176.316 62.9025 176.26 63.126 176.148 63.4053C176.036 63.6846 175.868 63.964 175.756 64.1874C175.644 64.4667 175.588 64.746 175.421 65.0254C175.309 65.3047 175.197 65.5281 174.917 65.6957C174.749 65.8075 174.582 65.6957 174.414 65.8075C174.246 65.8633 174.246 65.975 173.966 65.975H173.854C173.575 65.975 173.071 65.3605 173.071 65.0254C173.071 64.8578 173.239 64.8019 173.239 64.6902C173.239 64.4667 173.071 64.2991 173.071 63.964C173.071 63.7405 173.127 63.5729 173.239 63.4612C174.358 63.0701 175.533 62.6791 176.763 62.1763ZM156.234 57.7072C156.01 58.1541 155.563 58.2659 155.451 58.8245C155.395 59.1597 155.339 59.4949 155.227 59.83C155.115 60.1094 155.115 60.3887 155.115 60.7239C159.423 62.4556 163.562 63.964 168.764 63.4053C168.764 63.3495 168.764 63.2936 168.764 63.1819C168.764 62.8467 168.596 63.0143 168.596 62.735V62.6791C168.596 62.3998 169.323 62.0646 169.547 61.8411C169.827 61.5618 170.163 61.2266 170.498 61.0032C170.834 60.8356 171.449 60.668 171.673 60.3887C171.841 60.2211 172.4 59.6066 172.4 59.3273V59.2714V59.2155C165.855 60.8915 161.101 59.5507 156.234 57.7072ZM174.19 60.6121C174.302 60.277 174.358 60.277 174.638 60.1652C174.805 60.0535 175.085 60.0535 175.309 59.9418C175.588 59.83 175.588 59.6625 175.812 59.5507C176.036 59.439 176.204 59.439 176.316 59.1597C176.428 58.8804 176.483 58.8245 176.707 58.6569C176.987 58.4893 177.043 58.4893 176.987 58.0983C176.931 57.8748 177.211 57.6514 177.378 57.6514C177.378 57.7631 177.602 58.3776 177.658 58.601C177.714 58.8804 177.826 59.3273 177.826 59.6625V59.8859C177.826 60.0535 177.714 60.1652 177.602 60.1652C177.49 60.1652 177.49 60.1094 177.49 59.9976H177.323C177.323 60.2211 177.378 60.3887 177.323 60.5563C177.267 60.7797 177.155 60.7239 177.099 60.8915C177.099 60.9473 177.043 61.0032 177.043 61.059C175.98 61.506 174.973 61.897 173.966 62.2322L173.854 61.1708C173.854 61.059 174.134 60.7797 174.19 60.6121ZM154.388 52.5678C154.556 52.7912 154.556 52.9588 154.78 53.1264C154.892 53.2381 155.171 53.5175 155.227 53.5733C155.283 53.685 155.451 54.2995 155.451 54.2995C155.563 54.4113 155.563 54.3554 155.619 54.5789C155.675 54.6906 155.731 54.8023 155.787 54.914C155.843 55.0258 156.066 55.4727 156.066 55.5844V55.6961C156.066 55.8637 155.899 55.8079 155.899 56.0313V56.0872C155.899 56.3106 156.01 56.4782 156.122 56.7017C160.989 58.601 165.688 60.0535 172.232 58.3776V57.0369V56.8693C172.232 56.4782 171.953 56.6458 171.841 56.3665C171.785 56.2548 171.785 56.143 171.785 56.0313C171.785 55.8637 171.673 55.8079 171.673 55.6961V55.0258C164.737 56.59 159.758 54.6906 154.388 52.5678ZM140.124 44.2441C140.292 44.4117 140.404 44.5234 140.46 44.6351C140.292 44.9145 140.404 45.0262 140.516 45.1938V45.4731C140.572 45.5848 141.131 45.92 141.299 46.0317C141.467 46.1435 141.523 46.2552 141.634 46.3669C141.746 46.4786 141.914 46.5345 142.026 46.5904C142.362 46.8138 142.362 47.0931 142.641 47.2607C142.753 47.3166 143.424 47.7076 143.536 47.7076C144.04 47.7076 144.208 47.2607 145.159 47.2607H145.27C145.606 47.2607 145.886 47.2607 146.221 47.3166C146.557 47.3166 146.781 47.54 146.949 47.54H147.004C147.116 47.54 147.34 47.2607 147.62 47.2607C148.067 47.2607 147.899 47.0373 148.235 46.9814C148.459 46.9255 148.459 47.0373 148.571 46.9814C148.739 46.9255 148.627 46.8697 148.85 46.8138C149.13 46.7021 149.298 46.7021 149.689 46.7021H150.025C151.479 46.7021 150.976 47.987 151.647 47.987H151.703C151.983 47.987 152.151 47.9311 152.374 47.9311C152.71 47.9311 152.934 47.7635 152.99 47.7635C153.046 47.7635 153.269 48.1545 153.437 48.2663C153.773 48.4339 153.717 48.4897 153.885 48.769C153.773 48.9925 153.829 48.9925 153.773 49.3277C153.773 49.4953 153.605 49.5511 153.605 49.8305C153.605 50.0539 153.717 49.9422 153.661 50.1098C153.661 50.2215 153.605 50.3332 153.549 50.445C153.493 50.6125 153.381 50.9477 153.158 50.9477C153.158 51.0595 153.158 51.1712 153.213 51.227C153.549 51.3388 153.885 51.5064 154.276 51.6181C159.59 53.7409 164.457 55.6961 171.337 54.1878V54.0761C171.337 54.0202 171.561 53.294 171.617 53.2381C171.785 53.0147 171.897 52.903 172.064 52.6236C172.12 52.456 172.176 52.4002 172.176 52.2326C172.232 52.0091 172.288 52.1209 172.456 51.9533C172.68 51.7857 172.848 51.5622 172.959 51.3388C173.071 51.1712 173.239 50.836 173.407 50.7243C173.575 50.5567 173.743 50.3891 173.91 50.1656C174.022 50.0539 174.134 49.9422 174.246 49.8305C165.632 52.6795 160.094 50.445 153.885 47.987C150.025 46.4228 145.718 44.691 140.124 44.2441ZM139.117 39.8309C139.117 39.8867 139.117 39.9985 139.061 40.1102C138.949 40.3895 139.005 40.3895 138.838 40.613C138.782 40.6688 138.502 41.004 138.502 41.004C138.502 41.1157 138.726 41.6185 138.838 41.7302C138.782 41.842 138.726 41.8978 138.726 42.0654V42.4565C138.949 42.5123 138.894 42.8475 139.117 42.8475H139.341L139.397 43.2385L139.565 43.3503C145.606 43.6855 150.193 45.529 154.444 47.2049C160.877 49.7746 166.694 52.1209 176.148 48.3221C176.595 47.8752 176.931 47.3725 177.267 46.758C177.378 46.5345 177.434 46.1993 177.546 45.92C177.658 45.6407 177.77 45.4172 177.882 45.1379C177.994 44.9145 178.162 44.6351 178.218 44.4117C178.273 44.1882 178.273 44.0765 178.273 43.9089C167.422 48.8808 161.157 46.3669 154.109 43.5737C149.745 41.8978 145.214 40.1102 139.117 39.8309ZM140.18 35.4735C140.124 35.5294 140.124 35.5294 140.068 35.5852C139.9 35.8087 139.117 36.9818 139.117 37.2053H139.285V37.1494H139.341C139.397 37.2611 139.565 37.5405 139.565 37.5963C139.565 37.7639 139.341 37.8756 139.341 38.0991V38.2667C139.341 38.3784 139.453 38.4343 139.453 38.6577V38.9929C145.55 39.3281 150.081 41.1716 154.332 42.8475C161.268 45.6407 167.422 48.0987 178.218 43.0151C178.218 42.8475 178.273 42.8475 178.273 42.624C177.658 42.7916 177.994 42.5682 177.546 42.9592C177.378 43.071 176.987 43.071 176.707 43.1268C176.372 43.1827 176.092 43.1827 175.868 43.3503C175.756 43.4061 175.7 43.5179 175.533 43.5737C175.309 43.6296 175.365 43.5179 175.141 43.5179H175.085C174.917 43.5179 174.638 43.9648 174.302 43.7972C174.134 43.7413 173.743 43.3503 173.743 43.1827H173.519C173.631 43.071 173.854 42.9592 173.854 42.8475C173.854 42.5682 173.407 42.5123 173.183 42.0654C173.071 41.842 172.903 41.8978 172.736 41.7861C172.68 41.7302 172.624 41.6744 172.568 41.6185C164.96 43.6296 159.758 41.5068 154.053 39.2164C150.025 37.5963 145.718 35.9204 140.18 35.4735ZM144.096 31.6189C144.096 31.7306 144.152 31.7865 144.152 31.7865C144.152 32.1775 142.977 32.6803 142.529 32.792C142.138 32.8479 142.082 33.1272 141.858 33.4624C141.467 34.1328 141.411 33.7976 141.131 34.0769C140.963 34.2445 140.907 34.468 140.795 34.6914C146.165 35.1942 150.361 36.8701 154.276 38.4343C159.646 40.613 164.569 42.5682 171.561 40.9481C171.449 40.8923 171.449 41.004 171.337 40.8364C171.002 40.3895 171.113 40.2778 170.89 39.775C170.61 38.9929 169.771 39.384 169.715 37.9874C169.715 37.9315 169.715 37.8756 169.715 37.8756C163.562 38.7695 158.975 36.926 153.941 34.9149C151.032 33.63 147.844 32.3451 144.096 31.6189ZM153.549 28.4347H153.381C153.269 28.4347 153.269 28.4905 153.269 28.5464H153.158C153.046 28.5464 153.046 28.4347 152.878 28.4347C152.71 28.4347 152.598 28.714 152.318 28.714C152.095 28.714 152.039 28.5464 151.871 28.5464H150.864C150.361 28.5464 149.801 28.714 149.466 28.9375C148.794 28.9375 148.85 29.3285 148.403 29.3285H148.347C148.291 29.3285 148.123 29.2168 148.067 29.1609C147.955 29.1609 147.955 29.2168 147.899 29.2168C147.899 29.2168 147.62 29.0492 147.116 29.0492L146.949 28.714C146.669 28.7699 146.669 28.7699 146.557 28.9933C146.501 29.0492 146.445 29.1609 146.389 29.2168C146.333 29.3285 146.333 29.3844 146.277 29.4961C146.054 29.8313 145.774 29.8871 145.382 30.0547C144.823 30.2782 144.879 30.2782 144.599 30.7251C144.599 30.781 144.543 30.8368 144.487 30.8927C148.235 31.6748 151.368 32.9038 154.332 34.1328C159.143 36.0321 163.562 37.8198 169.379 37.0377C169.1 36.7584 168.82 36.5908 168.596 36.1439L168.764 35.9763L167.645 34.4121V34.2445C167.366 33.8535 166.75 33.1272 166.583 32.6803C166.806 32.8479 167.31 33.8535 167.533 33.8535C167.645 33.8535 167.813 33.5183 167.813 33.4624V33.0714V32.7362C167.813 32.6803 167.366 32.01 167.366 31.6748C167.03 31.6748 167.03 31.7865 166.75 31.7865H166.471C166.247 31.7865 166.079 31.5072 165.743 31.5072H165.632C165.128 31.5072 165.24 32.0658 164.401 31.8982C163.898 31.7865 163.506 31.563 162.947 31.563C162.891 31.6189 162.891 31.6189 162.779 31.6189H162.667C162.611 31.6189 162.443 31.5072 162.331 31.4513C162.219 31.5072 162.164 31.5072 162.052 31.5072H161.604C161.492 31.5072 161.324 31.0044 160.597 31.0044C160.262 31.0044 159.982 31.1161 159.814 31.2837C159.479 31.6189 159.926 31.9541 159.926 32.01C159.926 32.1217 159.702 32.401 159.534 32.401C159.367 32.4569 159.087 32.2893 158.975 32.2334C158.528 32.01 158.36 31.8424 157.744 31.8982L157.465 31.6189V31.3955C157.297 31.1161 157.129 31.1161 156.793 31.0044C156.234 30.781 156.178 31.0603 156.01 31.0603C155.731 31.0603 155.339 30.6692 155.227 30.6134V30.4458C155.003 30.4458 154.724 30.3899 154.724 30.1665C154.724 29.9989 155.171 29.8313 155.171 29.552C155.171 29.3285 155.003 29.1609 154.948 28.9933C155.059 28.8257 155.283 28.714 155.283 28.5464C155.283 28.4905 155.227 28.4347 155.171 28.4347C155.115 28.4347 155.003 28.4905 154.948 28.5464C154.78 28.4347 154.724 28.2671 154.5 28.2671H154.444C154.276 28.2671 154.164 28.4347 153.997 28.4347C153.941 28.5464 153.773 28.4347 153.549 28.4347Z" fill="#22B04C"/>
<path d="M57.5039 43.8528V39.9424H67.4048V43.8528H57.5039Z" fill="white"/>
<path d="M74.2845 32.1773V51.0592H69.8095V32.1773H63.8242V28.2109H80.2698V32.1773H74.2845Z" fill="white"/>
<path d="M93.4714 51.0592L88.9964 41.9534H85.808V51.0592H81.333V28.2109H90.283C91.4577 28.2109 92.4646 28.3785 93.4155 28.7696C94.3105 29.1606 95.0936 29.6634 95.7649 30.2779C96.3802 30.8924 96.8836 31.6745 97.2192 32.5124C97.5549 33.3504 97.7227 34.2442 97.7227 35.2498C97.7227 36.0877 97.6108 36.8139 97.3871 37.4284C97.1633 38.0429 96.8836 38.6574 96.4921 39.1602C96.1005 39.663 95.653 40.1099 95.1496 40.4451C94.6461 40.7803 94.1427 41.0596 93.5833 41.283L98.6736 51.115H93.4714V51.0592ZM92.3527 33.0152C91.7374 32.4566 90.9542 32.1773 90.0033 32.1773H85.808V38.1547H90.0033C91.0102 38.1547 91.7933 37.8753 92.3527 37.3167C92.968 36.7581 93.2477 36.0318 93.2477 35.138C93.2477 34.3001 92.968 33.5738 92.3527 33.0152Z" fill="white"/>
<path d="M115.902 42.4012C115.902 43.2391 115.79 44.0771 115.678 44.8033C115.511 45.5296 115.287 46.2558 115.007 46.9261C114.672 47.5965 114.224 48.211 113.665 48.7696C112.826 49.6076 111.931 50.2221 110.924 50.6131C109.917 51.0601 108.798 51.2276 107.456 51.2276C106.169 51.2276 104.994 51.0042 103.987 50.6131C102.981 50.1662 102.086 49.5517 101.247 48.7696C100.687 48.211 100.24 47.5965 99.9041 46.9261C99.5684 46.2558 99.4006 45.5854 99.2328 44.8033C99.1209 44.0771 99.0091 43.2391 99.0091 42.4012C99.0091 41.5632 98.9531 40.6136 98.9531 39.6639C98.9531 38.6583 98.9531 37.7645 99.0091 36.9266C99.0091 36.0886 99.1209 35.2506 99.2328 34.5244C99.3447 33.7982 99.5684 33.072 99.9041 32.4016C100.24 31.7312 100.687 31.1167 101.247 30.5581C102.086 29.7201 102.981 29.1056 103.987 28.7146C104.994 28.2677 106.169 28.1001 107.456 28.1001C108.742 28.1001 109.917 28.3236 110.924 28.7146C111.931 29.1615 112.826 29.776 113.665 30.5581C114.224 31.1167 114.672 31.7312 115.007 32.4016C115.343 33.072 115.567 33.7423 115.678 34.5244C115.79 35.2506 115.902 36.0886 115.902 36.9266C115.902 37.7645 115.958 38.7142 115.958 39.6639C115.902 40.6136 115.902 41.5632 115.902 42.4012ZM111.427 36.9266C111.371 36.2003 111.315 35.6417 111.259 35.1389C111.147 34.692 111.036 34.301 110.924 34.0216C110.756 33.7423 110.588 33.463 110.364 33.2396C110.029 32.8485 109.637 32.5692 109.134 32.3457C108.63 32.1223 108.127 32.0106 107.456 32.0106C106.84 32.0106 106.281 32.1223 105.777 32.3457C105.274 32.5692 104.882 32.8485 104.547 33.2396C104.323 33.463 104.155 33.7423 104.043 34.0216C103.932 34.301 103.764 34.692 103.708 35.1389C103.596 35.5858 103.54 36.2003 103.54 36.9266C103.484 37.6528 103.484 38.5466 103.484 39.6639C103.484 40.7811 103.484 41.675 103.54 42.4012C103.596 43.1274 103.652 43.6861 103.708 44.1888C103.82 44.6357 103.932 45.0268 104.043 45.3061C104.155 45.5854 104.379 45.8647 104.547 46.0882C104.882 46.4792 105.274 46.7586 105.777 46.982C106.281 47.2055 106.84 47.3172 107.456 47.3172C108.071 47.3172 108.63 47.2055 109.134 46.982C109.637 46.7586 110.029 46.4792 110.364 46.0882C110.588 45.8647 110.756 45.5854 110.924 45.3061C111.092 45.0268 111.203 44.6357 111.259 44.1888C111.371 43.7419 111.427 43.1274 111.427 42.4012C111.483 41.675 111.483 40.7811 111.483 39.6639C111.483 38.5466 111.427 37.6528 111.427 36.9266Z" fill="white"/>
<path d="M131.453 51.0592L122.391 37.0374V51.0592H117.916V28.2109H121.888L130.949 42.2327V28.2109H135.424V51.0592H131.453Z" fill="white"/>
<path d="M15.5508 29.4399V34.4677V51.0592H20.0258V37.0933L35.5764 46.2549L46.652 39.7189V34.6911L35.5764 41.283L15.5508 29.4399Z" fill="#22B04C"/>
<path d="M35.5764 31.7863L15.5508 19.999V24.9709L35.5764 36.7581L51.127 27.5965V32.0656V37.0933V51.0592H55.5461V34.4677V29.44V24.9709V23.4626V19.999L35.5764 31.7863Z" fill="#22B04C"/>
<path d="M61.4193 54.8022C55.5459 62.679 46.1484 67.7626 35.5762 67.7626C17.7322 67.7626 3.30031 53.3498 3.30031 35.5293C3.30031 17.7088 17.7322 3.29595 35.5762 3.29595C49.5046 3.29595 61.3634 12.1224 65.8943 24.4683H69.3624C64.7196 10.2789 51.3506 0 35.5762 0C15.9422 0 0 15.9211 0 35.5293C0 55.1374 15.9422 71.0585 35.5762 71.0585C48.1062 71.0585 59.1259 64.5784 65.4468 54.8581H61.4193V54.8022Z" fill="white"/>
<path d="M140.571 25.1384C140.459 25.4178 140.291 25.6971 140.067 25.9205C139.843 26.144 139.62 26.3116 139.284 26.4233C139.004 26.535 138.669 26.5909 138.333 26.5909C137.997 26.5909 137.718 26.535 137.382 26.4233C137.102 26.3116 136.823 26.144 136.599 25.9205C136.375 25.6971 136.207 25.4736 136.096 25.1384C135.984 24.8591 135.928 24.5239 135.928 24.1888C135.928 23.8536 135.984 23.5743 136.096 23.2391C136.207 22.9598 136.375 22.6804 136.599 22.457C136.823 22.2335 137.046 22.0659 137.382 21.9542C137.662 21.8425 137.997 21.7866 138.333 21.7866C138.669 21.7866 138.948 21.8425 139.284 21.9542C139.564 22.0659 139.843 22.2335 140.067 22.457C140.291 22.6804 140.459 22.9039 140.571 23.2391C140.682 23.5184 140.738 23.8536 140.738 24.1888C140.738 24.5239 140.682 24.8591 140.571 25.1384ZM140.291 23.4067C140.179 23.1273 140.011 22.9039 139.843 22.7363C139.676 22.5687 139.452 22.4011 139.172 22.2894C138.892 22.1777 138.669 22.1218 138.389 22.1218C138.109 22.1218 137.83 22.1777 137.606 22.2894C137.326 22.4011 137.158 22.5687 136.935 22.7363C136.767 22.9039 136.599 23.1273 136.487 23.4067C136.375 23.686 136.319 23.9094 136.319 24.1888C136.319 24.4681 136.375 24.7474 136.487 24.9708C136.599 25.2502 136.767 25.4736 136.935 25.6412C137.102 25.8088 137.326 25.9764 137.606 26.0881C137.886 26.1998 138.109 26.2557 138.389 26.2557C138.669 26.2557 138.948 26.1998 139.172 26.0881C139.452 25.9764 139.62 25.8088 139.843 25.6412C140.011 25.4736 140.179 25.2502 140.291 24.9708C140.403 24.6915 140.459 24.4681 140.459 24.1888C140.459 23.9094 140.403 23.6301 140.291 23.4067ZM139.004 25.5295L138.333 24.4122H137.886V25.5295H137.606V22.9039H138.445C138.557 22.9039 138.669 22.9039 138.781 22.9598C138.892 23.0156 138.948 23.0715 139.06 23.1273C139.116 23.1832 139.172 23.2949 139.228 23.3508C139.284 23.4625 139.284 23.5743 139.284 23.686C139.284 23.9094 139.228 24.0212 139.116 24.1888C139.004 24.3005 138.836 24.4122 138.669 24.4681L139.34 25.5853H139.004V25.5295ZM138.836 23.2949C138.725 23.1832 138.613 23.1273 138.445 23.1273H137.941V24.1329H138.445C138.613 24.1329 138.725 24.077 138.836 23.9653C138.948 23.8536 139.004 23.7418 139.004 23.6301C139.004 23.5184 138.948 23.4067 138.836 23.2949Z" fill="white"/>
<path fill-rule="evenodd" clip-rule="evenodd" d="M158.079 28.1558C158.079 28.2675 158.135 28.3792 158.135 28.491C158.303 28.5468 158.471 28.6027 158.638 28.7144C159.198 28.3792 159.869 28.2116 160.596 28.2116C160.988 28.2116 161.323 28.2675 161.659 28.3792C163.058 26.7592 165.071 25.6978 167.421 25.6978C171.56 25.6978 174.916 29.0496 174.916 33.1835C174.916 35.027 174.245 36.6471 173.182 37.9878C173.35 38.2112 173.462 38.4906 173.574 38.7699C173.63 38.8816 173.63 38.9933 173.686 39.1051C173.909 39.2168 174.133 39.3285 174.357 39.4961C174.804 39.7196 175.14 40.0547 175.42 40.3899C175.476 40.4458 175.476 40.4458 175.532 40.5016C175.699 40.4458 175.811 40.4458 175.923 40.4458C175.979 39.7754 176.203 39.0492 176.538 38.3788C177.098 37.4291 177.937 36.7029 179 36.2001C178.328 35.3622 177.937 34.3008 177.937 33.0718C177.937 31.9545 178.328 30.8931 179 29.9434C177.937 29.5524 177.098 28.8261 176.538 27.7647C175.979 26.8151 175.811 25.6978 175.867 24.5805C174.804 24.7481 173.686 24.5805 172.679 23.9101C171.616 23.3515 170.889 22.5136 170.497 21.4521C169.658 22.1225 168.539 22.5136 167.365 22.5136C166.19 22.5136 165.127 22.1225 164.232 21.4521C163.841 22.5136 163.113 23.3515 162.051 23.9101C160.988 24.5805 159.869 24.7481 158.862 24.5805C158.974 25.6978 158.75 26.8151 158.191 27.7647C158.247 27.9323 158.135 28.0441 158.079 28.1558Z" fill="#FCCB3A"/>
<path fill-rule="evenodd" clip-rule="evenodd" d="M165.576 68.7682L165.52 68.8241C165.184 69.2151 164.848 69.5503 164.401 69.8855C163.786 70.3324 163.898 70.5 162.835 70.5C162.723 70.5559 162.499 70.7235 162.331 70.7235H162.275C161.94 70.7235 161.996 70.5559 161.492 70.6117C160.989 70.6676 161.213 70.5559 160.821 70.8352H160.262C160.094 70.9469 159.87 71.1145 159.646 71.0028C159.534 70.9469 159.478 70.891 159.367 70.7793C159.311 70.7235 159.143 70.6676 159.087 70.6117L158.919 70.7235V70.5C158.919 70.3883 158.975 70.4441 158.975 70.3324C158.975 70.2207 158.751 69.9972 158.695 69.8855C158.751 69.8296 158.863 69.662 158.863 69.5503V69.271C158.863 69.0475 158.36 68.6565 158.192 68.0979C157.968 67.3158 157.856 67.4834 157.521 66.9806C157.465 66.9247 157.465 66.8689 157.409 66.813C160.038 67.8744 162.667 68.6006 165.576 68.7682ZM155.507 61.7853C155.675 62.0087 155.731 62.3439 155.899 62.5674C156.178 62.9584 156.738 63.6288 156.738 64.2433V64.2991C156.738 64.4667 156.682 64.8578 156.793 65.0812C156.905 65.3047 156.961 65.4723 156.961 65.8075V65.8633C159.926 66.9806 162.891 67.8744 166.303 67.9303C166.359 67.8744 166.471 67.7627 166.527 67.7068C166.806 67.5392 167.086 66.5895 167.198 66.1985L167.03 66.0868C167.478 65.4164 168.261 65.6957 168.708 65.0254L168.764 64.355C163.786 64.8019 159.702 63.4612 155.507 61.7853ZM176.763 62.1763C176.707 62.3439 176.595 62.4556 176.483 62.6232C176.316 62.9025 176.26 63.126 176.148 63.4053C176.036 63.6846 175.868 63.964 175.756 64.1874C175.644 64.4667 175.588 64.746 175.421 65.0254C175.309 65.3047 175.197 65.5281 174.917 65.6957C174.749 65.8075 174.582 65.6957 174.414 65.8075C174.246 65.8633 174.246 65.975 173.966 65.975H173.854C173.575 65.975 173.071 65.3605 173.071 65.0254C173.071 64.8578 173.239 64.8019 173.239 64.6902C173.239 64.4667 173.071 64.2991 173.071 63.964C173.071 63.7405 173.127 63.5729 173.239 63.4612C174.358 63.0701 175.533 62.6791 176.763 62.1763ZM156.234 57.7072C156.01 58.1541 155.563 58.2659 155.451 58.8245C155.395 59.1597 155.339 59.4949 155.227 59.83C155.115 60.1094 155.115 60.3887 155.115 60.7239C159.423 62.4556 163.562 63.964 168.764 63.4053C168.764 63.3495 168.764 63.2936 168.764 63.1819C168.764 62.8467 168.596 63.0143 168.596 62.735V62.6791C168.596 62.3998 169.323 62.0646 169.547 61.8411C169.827 61.5618 170.163 61.2266 170.498 61.0032C170.834 60.8356 171.449 60.668 171.673 60.3887C171.841 60.2211 172.4 59.6066 172.4 59.3273V59.2714V59.2155C165.855 60.8915 161.101 59.5507 156.234 57.7072ZM174.19 60.6121C174.302 60.277 174.358 60.277 174.638 60.1652C174.805 60.0535 175.085 60.0535 175.309 59.9418C175.588 59.83 175.588 59.6625 175.812 59.5507C176.036 59.439 176.204 59.439 176.316 59.1597C176.428 58.8804 176.483 58.8245 176.707 58.6569C176.987 58.4893 177.043 58.4893 176.987 58.0983C176.931 57.8748 177.211 57.6514 177.378 57.6514C177.378 57.7631 177.602 58.3776 177.658 58.601C177.714 58.8804 177.826 59.3273 177.826 59.6625V59.8859C177.826 60.0535 177.714 60.1652 177.602 60.1652C177.49 60.1652 177.49 60.1094 177.49 59.9976H177.323C177.323 60.2211 177.378 60.3887 177.323 60.5563C177.267 60.7797 177.155 60.7239 177.099 60.8915C177.099 60.9473 177.043 61.0032 177.043 61.059C175.98 61.506 174.973 61.897 173.966 62.2322L173.854 61.1708C173.854 61.059 174.134 60.7797 174.19 60.6121ZM154.388 52.5678C154.556 52.7912 154.556 52.9588 154.78 53.1264C154.892 53.2381 155.171 53.5175 155.227 53.5733C155.283 53.685 155.451 54.2995 155.451 54.2995C155.563 54.4113 155.563 54.3554 155.619 54.5789C155.675 54.6906 155.731 54.8023 155.787 54.914C155.843 55.0258 156.066 55.4727 156.066 55.5844V55.6961C156.066 55.8637 155.899 55.8079 155.899 56.0313V56.0872C155.899 56.3106 156.01 56.4782 156.122 56.7017C160.989 58.601 165.688 60.0535 172.232 58.3776V57.0369V56.8693C172.232 56.4782 171.953 56.6458 171.841 56.3665C171.785 56.2548 171.785 56.143 171.785 56.0313C171.785 55.8637 171.673 55.8079 171.673 55.6961V55.0258C164.737 56.59 159.758 54.6906 154.388 52.5678ZM140.124 44.2441C140.292 44.4117 140.404 44.5234 140.46 44.6351C140.292 44.9145 140.404 45.0262 140.516 45.1938V45.4731C140.572 45.5848 141.131 45.92 141.299 46.0317C141.467 46.1435 141.523 46.2552 141.634 46.3669C141.746 46.4786 141.914 46.5345 142.026 46.5904C142.362 46.8138 142.362 47.0931 142.641 47.2607C142.753 47.3166 143.424 47.7076 143.536 47.7076C144.04 47.7076 144.208 47.2607 145.159 47.2607H145.27C145.606 47.2607 145.886 47.2607 146.221 47.3166C146.557 47.3166 146.781 47.54 146.949 47.54H147.004C147.116 47.54 147.34 47.2607 147.62 47.2607C148.067 47.2607 147.899 47.0373 148.235 46.9814C148.459 46.9255 148.459 47.0373 148.571 46.9814C148.739 46.9255 148.627 46.8697 148.85 46.8138C149.13 46.7021 149.298 46.7021 149.689 46.7021H150.025C151.479 46.7021 150.976 47.987 151.647 47.987H151.703C151.983 47.987 152.151 47.9311 152.374 47.9311C152.71 47.9311 152.934 47.7635 152.99 47.7635C153.046 47.7635 153.269 48.1545 153.437 48.2663C153.773 48.4339 153.717 48.4897 153.885 48.769C153.773 48.9925 153.829 48.9925 153.773 49.3277C153.773 49.4953 153.605 49.5511 153.605 49.8305C153.605 50.0539 153.717 49.9422 153.661 50.1098C153.661 50.2215 153.605 50.3332 153.549 50.445C153.493 50.6125 153.381 50.9477 153.158 50.9477C153.158 51.0595 153.158 51.1712 153.213 51.227C153.549 51.3388 153.885 51.5064 154.276 51.6181C159.59 53.7409 164.457 55.6961 171.337 54.1878V54.0761C171.337 54.0202 171.561 53.294 171.617 53.2381C171.785 53.0147 171.897 52.903 172.064 52.6236C172.12 52.456 172.176 52.4002 172.176 52.2326C172.232 52.0091 172.288 52.1209 172.456 51.9533C172.68 51.7857 172.848 51.5622 172.959 51.3388C173.071 51.1712 173.239 50.836 173.407 50.7243C173.575 50.5567 173.743 50.3891 173.91 50.1656C174.022 50.0539 174.134 49.9422 174.246 49.8305C165.632 52.6795 160.094 50.445 153.885 47.987C150.025 46.4228 145.718 44.691 140.124 44.2441ZM139.117 39.8309C139.117 39.8867 139.117 39.9985 139.061 40.1102C138.949 40.3895 139.005 40.3895 138.838 40.613C138.782 40.6688 138.502 41.004 138.502 41.004C138.502 41.1157 138.726 41.6185 138.838 41.7302C138.782 41.842 138.726 41.8978 138.726 42.0654V42.4565C138.949 42.5123 138.894 42.8475 139.117 42.8475H139.341L139.397 43.2385L139.565 43.3503C145.606 43.6855 150.193 45.529 154.444 47.2049C160.877 49.7746 166.694 52.1209 176.148 48.3221C176.595 47.8752 176.931 47.3725 177.267 46.758C177.378 46.5345 177.434 46.1993 177.546 45.92C177.658 45.6407 177.77 45.4172 177.882 45.1379C177.994 44.9145 178.162 44.6351 178.218 44.4117C178.273 44.1882 178.273 44.0765 178.273 43.9089C167.422 48.8808 161.157 46.3669 154.109 43.5737C149.745 41.8978 145.214 40.1102 139.117 39.8309ZM140.18 35.4735C140.124 35.5294 140.124 35.5294 140.068 35.5852C139.9 35.8087 139.117 36.9818 139.117 37.2053H139.285V37.1494H139.341C139.397 37.2611 139.565 37.5405 139.565 37.5963C139.565 37.7639 139.341 37.8756 139.341 38.0991V38.2667C139.341 38.3784 139.453 38.4343 139.453 38.6577V38.9929C145.55 39.3281 150.081 41.1716 154.332 42.8475C161.268 45.6407 167.422 48.0987 178.218 43.0151C178.218 42.8475 178.273 42.8475 178.273 42.624C177.658 42.7916 177.994 42.5682 177.546 42.9592C177.378 43.071 176.987 43.071 176.707 43.1268C176.372 43.1827 176.092 43.1827 175.868 43.3503C175.756 43.4061 175.7 43.5179 175.533 43.5737C175.309 43.6296 175.365 43.5179 175.141 43.5179H175.085C174.917 43.5179 174.638 43.9648 174.302 43.7972C174.134 43.7413 173.743 43.3503 173.743 43.1827H173.519C173.631 43.071 173.854 42.9592 173.854 42.8475C173.854 42.5682 173.407 42.5123 173.183 42.0654C173.071 41.842 172.903 41.8978 172.736 41.7861C172.68 41.7302 172.624 41.6744 172.568 41.6185C164.96 43.6296 159.758 41.5068 154.053 39.2164C150.025 37.5963 145.718 35.9204 140.18 35.4735ZM144.096 31.6189C144.096 31.7306 144.152 31.7865 144.152 31.7865C144.152 32.1775 142.977 32.6803 142.529 32.792C142.138 32.8479 142.082 33.1272 141.858 33.4624C141.467 34.1328 141.411 33.7976 141.131 34.0769C140.963 34.2445 140.907 34.468 140.795 34.6914C146.165 35.1942 150.361 36.8701 154.276 38.4343C159.646 40.613 164.569 42.5682 171.561 40.9481C171.449 40.8923 171.449 41.004 171.337 40.8364C171.002 40.3895 171.113 40.2778 170.89 39.775C170.61 38.9929 169.771 39.384 169.715 37.9874C169.715 37.9315 169.715 37.8756 169.715 37.8756C163.562 38.7695 158.975 36.926 153.941 34.9149C151.032 33.63 147.844 32.3451 144.096 31.6189ZM153.549 28.4347H153.381C153.269 28.4347 153.269 28.4905 153.269 28.5464H153.158C153.046 28.5464 153.046 28.4347 152.878 28.4347C152.71 28.4347 152.598 28.714 152.318 28.714C152.095 28.714 152.039 28.5464 151.871 28.5464H150.864C150.361 28.5464 149.801 28.714 149.466 28.9375C148.794 28.9375 148.85 29.3285 148.403 29.3285H148.347C148.291 29.3285 148.123 29.2168 148.067 29.1609C147.955 29.1609 147.955 29.2168 147.899 29.2168C147.899 29.2168 147.62 29.0492 147.116 29.0492L146.949 28.714C146.669 28.7699 146.669 28.7699 146.557 28.9933C146.501 29.0492 146.445 29.1609 146.389 29.2168C146.333 29.3285 146.333 29.3844 146.277 29.4961C146.054 29.8313 145.774 29.8871 145.382 30.0547C144.823 30.2782 144.879 30.2782 144.599 30.7251C144.599 30.781 144.543 30.8368 144.487 30.8927C148.235 31.6748 151.368 32.9038 154.332 34.1328C159.143 36.0321 163.562 37.8198 169.379 37.0377C169.1 36.7584 168.82 36.5908 168.596 36.1439L168.764 35.9763L167.645 34.4121V34.2445C167.366 33.8535 166.75 33.1272 166.583 32.6803C166.806 32.8479 167.31 33.8535 167.533 33.8535C167.645 33.8535 167.813 33.5183 167.813 33.4624V33.0714V32.7362C167.813 32.6803 167.366 32.01 167.366 31.6748C167.03 31.6748 167.03 31.7865 166.75 31.7865H166.471C166.247 31.7865 166.079 31.5072 165.743 31.5072H165.632C165.128 31.5072 165.24 32.0658 164.401 31.8982C163.898 31.7865 163.506 31.563 162.947 31.563C162.891 31.6189 162.891 31.6189 162.779 31.6189H162.667C162.611 31.6189 162.443 31.5072 162.331 31.4513C162.219 31.5072 162.164 31.5072 162.052 31.5072H161.604C161.492 31.5072 161.324 31.0044 160.597 31.0044C160.262 31.0044 159.982 31.1161 159.814 31.2837C159.479 31.6189 159.926 31.9541 159.926 32.01C159.926 32.1217 159.702 32.401 159.534 32.401C159.367 32.4569 159.087 32.2893 158.975 32.2334C158.528 32.01 158.36 31.8424 157.744 31.8982L157.465 31.6189V31.3955C157.297 31.1161 157.129 31.1161 156.793 31.0044C156.234 30.781 156.178 31.0603 156.01 31.0603C155.731 31.0603 155.339 30.6692 155.227 30.6134V30.4458C155.003 30.4458 154.724 30.3899 154.724 30.1665C154.724 29.9989 155.171 29.8313 155.171 29.552C155.171 29.3285 155.003 29.1609 154.948 28.9933C155.059 28.8257 155.283 28.714 155.283 28.5464C155.283 28.4905 155.227 28.4347 155.171 28.4347C155.115 28.4347 155.003 28.4905 154.948 28.5464C154.78 28.4347 154.724 28.2671 154.5 28.2671H154.444C154.276 28.2671 154.164 28.4347 153.997 28.4347C153.941 28.5464 153.773 28.4347 153.549 28.4347Z" fill="#22B04C"/>
<path fill-rule="evenodd" clip-rule="evenodd" d="M162.387 28.6584C162.666 28.6584 162.89 28.7143 163.17 28.7701C163.617 28.7701 164.009 28.8818 164.289 28.9377C164.68 28.7701 165.128 28.6584 165.631 28.6584H165.743C166.19 28.6584 166.582 28.7143 166.862 28.826C167.03 28.826 167.197 28.7701 167.365 28.7701C168.652 28.7701 169.77 29.6639 170.05 30.8929C170.05 30.9488 170.106 31.0047 170.106 31.0047C170.274 31.3398 170.554 31.8426 170.554 32.6247V33.0158V33.2951C170.554 33.4068 170.554 33.5185 170.554 33.6303L170.945 34.1889C171.113 34.4123 171.225 34.6358 171.337 34.9151C171.337 34.9151 171.337 34.9151 171.393 34.971C171.728 35.3062 171.952 35.7531 172.064 36.2C172.232 36.4793 172.4 36.8145 172.455 37.1497C172.791 37.429 173.183 37.8759 173.462 38.4904C174.805 37.0379 175.588 35.1386 175.588 33.0158C175.588 28.5467 171.952 24.9155 167.477 24.9155C164.792 24.9155 162.443 26.2004 160.988 28.1556C161.548 28.3232 161.995 28.4349 162.387 28.6584Z" fill="#F26C11"/>
<path fill-rule="evenodd" clip-rule="evenodd" d="M165.631 28.714H165.742C166.19 28.714 166.582 28.7699 166.861 28.8816C167.029 28.8816 167.197 28.8257 167.365 28.8257C168.651 28.8257 169.77 29.7196 170.05 30.9486C170.05 31.0044 170.106 31.0603 170.106 31.0603C170.273 31.3955 170.553 31.8982 170.553 32.6803V33.0714V33.3507C170.553 33.4624 170.553 33.5742 170.553 33.6859L170.945 34.2445C171.113 34.468 171.224 34.6914 171.336 34.9707C171.336 34.9707 171.336 34.9707 171.392 35.0266C171.56 35.2501 171.728 35.4735 171.84 35.697C172.287 34.9149 172.567 34.0211 172.567 33.0714C172.567 30.2782 170.273 27.9878 167.477 27.9878C166.47 27.9878 165.519 28.2671 164.68 28.8257C165.015 28.714 165.351 28.714 165.631 28.714Z" fill="#FF0000"/>
</svg>
