<svg width="435" height="174" viewBox="0 0 435 174" fill="none" xmlns="http://www.w3.org/2000/svg">
<path d="M185.011 172.82V134.129H208.528V136.709H188.001V151.914H205.537V154.493H188.001V170.105H208.528V172.685H185.011V172.82Z" fill="#FF0000"/>
<path d="M240.61 172.82L218.316 139.152V172.82H215.325V134.129H218.316L240.61 167.662V134.129H243.6V172.82H240.61Z" fill="#FF0000"/>
<path d="M253.39 172.82V134.129H276.907V136.709H256.38V151.914H273.916V154.493H256.38V170.105H276.907V172.685H253.39V172.82Z" fill="#FF0000"/>
<path d="M306.538 172.82L297.294 155.036H286.691V172.82H283.7V134.129H298.381C299.877 134.129 301.372 134.401 302.731 134.808C304.091 135.215 305.314 135.894 306.266 136.844C307.217 137.659 308.033 138.745 308.577 140.103C309.121 141.46 309.392 142.954 309.392 144.583C309.392 147.434 308.577 149.877 306.946 151.642C305.314 153.407 303.139 154.629 300.421 155.036L309.8 172.956H306.538V172.82ZM305.994 141.053C305.586 140.103 305.042 139.288 304.227 138.609C303.411 137.93 302.596 137.523 301.508 137.116C300.421 136.844 299.333 136.709 298.11 136.709H286.691V152.321H298.11C299.333 152.321 300.421 152.185 301.508 151.914C302.596 151.642 303.411 151.099 304.227 150.42C305.042 149.741 305.586 148.927 305.994 147.977C306.402 147.026 306.674 145.804 306.674 144.447C306.674 143.225 306.402 142.003 305.994 141.053Z" fill="#FF0000"/>
<path d="M341.611 164.539C341.204 166.032 340.388 167.39 339.164 168.612C337.941 169.969 336.31 171.056 334.543 171.87C332.775 172.685 330.872 173.092 328.969 173.092C327.066 173.092 325.299 172.685 323.668 172.006C322.036 171.327 320.541 170.377 319.318 169.019C318.502 168.205 317.822 167.254 317.279 166.304C316.735 165.354 316.463 164.268 316.191 163.182C315.919 161.96 315.783 160.602 315.783 158.973C315.783 157.344 315.783 155.443 315.783 153.271C315.783 151.099 315.783 149.198 315.783 147.705C315.783 146.076 315.919 144.718 316.191 143.497C316.463 142.275 316.735 141.189 317.279 140.238C317.822 139.288 318.502 138.338 319.318 137.523C320.541 136.301 322.036 135.215 323.668 134.537C325.299 133.858 327.066 133.45 328.969 133.45C330.736 133.45 332.232 133.722 333.727 134.265C335.222 134.808 336.446 135.623 337.669 136.573C338.893 137.523 339.844 138.745 340.524 140.103C341.339 141.46 341.883 143.089 342.155 144.718H339.164C338.621 142.003 337.397 139.967 335.494 138.338C333.727 136.844 331.416 136.03 328.833 136.03C327.474 136.03 326.114 136.301 324.891 136.844C323.668 137.387 322.444 138.066 321.493 139.017C320.813 139.695 320.269 140.374 319.861 141.189C319.454 142.003 319.182 142.954 318.91 143.904C318.774 144.99 318.638 146.212 318.502 147.705C318.502 149.198 318.366 150.963 318.366 153C318.366 155.036 318.366 156.801 318.502 158.294C318.502 159.788 318.638 161.009 318.91 162.095C319.046 163.182 319.454 164.132 319.861 164.811C320.269 165.625 320.813 166.304 321.493 166.983C322.444 167.933 323.532 168.748 324.891 169.155C326.114 169.698 327.474 169.969 328.833 169.969C330.329 169.969 331.824 169.698 333.183 169.019C334.543 168.34 335.766 167.39 336.854 166.168C337.669 165.082 338.349 163.996 338.621 162.774C339.029 161.552 339.164 160.195 339.164 158.43V154.9H328.969V152.321H342.291V158.566C342.291 161.281 342.155 163.046 341.611 164.539Z" fill="#FF0000"/>
<path d="M358.875 156.665V172.685H355.885V156.665L344.466 133.994H347.592L357.38 153.543L367.031 133.994H370.158L358.875 156.665Z" fill="#FF0000"/>
<path fill-rule="evenodd" clip-rule="evenodd" d="M402.377 167.118L402.241 167.254C401.425 168.205 400.61 169.019 399.522 169.834C398.027 170.92 398.299 171.327 395.716 171.327C395.444 171.463 394.9 171.87 394.492 171.87H394.357C393.541 171.87 393.677 171.463 392.453 171.599C391.23 171.734 391.774 171.463 390.822 172.142H389.463C389.055 172.413 388.511 172.82 387.967 172.549C387.696 172.413 387.56 172.277 387.288 172.006C387.152 171.87 386.744 171.734 386.608 171.599L386.2 171.87V171.327C386.2 171.055 386.336 171.191 386.336 170.92C386.336 170.648 385.792 170.105 385.657 169.834C385.792 169.698 386.064 169.291 386.064 169.019V168.34C386.064 167.797 384.841 166.847 384.433 165.489C383.889 163.589 383.617 163.996 382.802 162.774C382.666 162.638 382.666 162.503 382.53 162.367C388.919 164.946 395.308 166.711 402.377 167.118ZM377.908 150.149C378.316 150.692 378.452 151.506 378.86 152.049C379.539 153 380.899 154.629 380.899 156.122V156.258C380.899 156.665 380.763 157.615 381.035 158.158C381.306 158.701 381.442 159.109 381.442 159.923V160.059C388.647 162.774 395.852 164.946 404.144 165.082C404.28 164.946 404.552 164.675 404.688 164.539C405.367 164.132 406.047 161.824 406.319 160.874L405.911 160.602C406.999 158.973 408.902 159.652 409.989 158.023L410.125 156.394C398.027 157.48 388.103 154.221 377.908 150.149ZM429.564 151.099C429.428 151.506 429.157 151.778 428.885 152.185C428.477 152.864 428.341 153.407 428.069 154.086C427.797 154.764 427.389 155.443 427.118 155.986C426.846 156.665 426.71 157.344 426.302 158.023C426.03 158.701 425.758 159.244 425.078 159.652C424.671 159.923 424.263 159.652 423.855 159.923C423.447 160.059 423.447 160.331 422.767 160.331H422.496C421.816 160.331 420.592 158.837 420.592 158.023C420.592 157.615 421 157.48 421 157.208C421 156.665 420.592 156.258 420.592 155.443C420.592 154.9 420.728 154.493 421 154.221C423.719 153.271 426.574 152.321 429.564 151.099ZM379.675 140.238C379.131 141.324 378.044 141.596 377.772 142.954C377.636 143.768 377.5 144.583 377.228 145.397C376.956 146.076 376.956 146.755 376.956 147.569C387.424 151.778 397.483 155.443 410.125 154.086C410.125 153.95 410.125 153.814 410.125 153.543C410.125 152.728 409.717 153.135 409.717 152.457V152.321C409.717 151.642 411.485 150.827 412.028 150.284C412.708 149.606 413.524 148.791 414.339 148.248C415.155 147.841 416.65 147.434 417.194 146.755C417.602 146.347 418.961 144.854 418.961 144.175V144.04V143.904C403.057 147.977 391.502 144.718 379.675 140.238ZM423.311 147.298C423.583 146.483 423.719 146.483 424.399 146.212C424.807 145.94 425.486 145.94 426.03 145.669C426.71 145.397 426.71 144.99 427.253 144.718C427.797 144.447 428.205 144.447 428.477 143.768C428.749 143.089 428.885 142.954 429.428 142.546C430.108 142.139 430.244 142.139 430.108 141.189C429.972 140.646 430.652 140.103 431.06 140.103C431.06 140.374 431.603 141.867 431.739 142.41C431.875 143.089 432.147 144.175 432.147 144.99V145.533C432.147 145.94 431.875 146.212 431.603 146.212C431.332 146.212 431.332 146.076 431.332 145.804H430.924C430.924 146.347 431.06 146.755 430.924 147.162C430.788 147.705 430.516 147.569 430.38 147.977C430.38 148.112 430.244 148.248 430.244 148.384C427.661 149.47 425.214 150.42 422.767 151.235L422.496 148.655C422.496 148.384 423.175 147.705 423.311 147.298ZM375.189 127.749C375.597 128.292 375.597 128.699 376.141 129.106C376.413 129.378 377.092 130.056 377.228 130.192C377.364 130.464 377.772 131.957 377.772 131.957C378.044 132.229 378.044 132.093 378.18 132.636C378.316 132.907 378.452 133.179 378.588 133.45C378.724 133.722 379.267 134.808 379.267 135.08V135.351C379.267 135.758 378.86 135.623 378.86 136.166V136.301C378.86 136.844 379.132 137.252 379.403 137.795C391.23 142.41 402.649 145.94 418.553 141.867V138.609V138.202C418.553 137.252 417.874 137.659 417.602 136.98C417.466 136.709 417.466 136.437 417.466 136.166C417.466 135.758 417.194 135.623 417.194 135.351V133.722C400.338 137.523 388.239 132.907 375.189 127.749ZM340.525 107.521C340.933 107.928 341.205 108.199 341.341 108.471C340.933 109.15 341.205 109.421 341.477 109.828V110.507C341.613 110.779 342.972 111.593 343.38 111.865C343.788 112.136 343.924 112.408 344.196 112.679C344.467 112.951 344.875 113.087 345.147 113.222C345.963 113.765 345.963 114.444 346.642 114.852C346.914 114.987 348.546 115.938 348.817 115.938C350.041 115.938 350.449 114.852 352.76 114.852H353.031C353.847 114.852 354.527 114.852 355.342 114.987C356.158 114.987 356.702 115.53 357.11 115.53H357.246C357.517 115.53 358.061 114.852 358.741 114.852C359.828 114.852 359.421 114.309 360.236 114.173C360.78 114.037 360.78 114.309 361.052 114.173C361.46 114.037 361.188 113.901 361.731 113.765C362.411 113.494 362.819 113.494 363.771 113.494H364.586C368.121 113.494 366.897 116.616 368.528 116.616H368.664C369.344 116.616 369.752 116.481 370.296 116.481C371.111 116.481 371.655 116.073 371.791 116.073C371.927 116.073 372.471 117.024 372.878 117.295C373.694 117.702 373.558 117.838 373.966 118.517C373.694 119.06 373.83 119.06 373.694 119.875C373.694 120.282 373.286 120.418 373.286 121.096C373.286 121.639 373.558 121.368 373.422 121.775C373.422 122.047 373.286 122.318 373.15 122.59C373.014 122.997 372.742 123.812 372.199 123.812C372.199 124.083 372.199 124.355 372.335 124.49C373.15 124.762 373.966 125.169 374.917 125.441C387.831 130.6 399.658 135.351 416.378 131.686V131.414C416.378 131.278 416.922 129.513 417.058 129.378C417.466 128.835 417.738 128.563 418.146 127.884C418.282 127.477 418.417 127.341 418.417 126.934C418.553 126.391 418.689 126.663 419.097 126.255C419.641 125.848 420.049 125.305 420.321 124.762C420.592 124.355 421 123.54 421.408 123.269C421.816 122.861 422.224 122.454 422.632 121.911C422.903 121.639 423.175 121.368 423.447 121.096C402.513 128.02 389.055 122.59 373.966 116.616C364.586 112.815 354.119 108.607 340.525 107.521ZM338.078 96.7957C338.078 96.9315 338.078 97.203 337.942 97.4745C337.671 98.1533 337.806 98.1533 337.399 98.6963C337.263 98.8321 336.583 99.6466 336.583 99.6466C336.583 99.9181 337.127 101.14 337.399 101.411C337.263 101.683 337.127 101.819 337.127 102.226V103.176C337.671 103.312 337.535 104.127 338.078 104.127H338.622L338.758 105.077L339.166 105.348C353.847 106.163 364.994 110.643 375.325 114.716C390.958 120.961 405.096 126.663 428.069 117.431C429.157 116.345 429.972 115.123 430.788 113.63C431.06 113.087 431.196 112.272 431.467 111.593C431.739 110.915 432.011 110.372 432.283 109.693C432.555 109.15 432.963 108.471 433.099 107.928C433.235 107.385 433.235 107.113 433.235 106.706C406.863 118.789 391.638 112.679 374.51 105.891C363.906 101.819 352.896 97.4745 338.078 96.7957ZM340.661 86.2065C340.525 86.3423 340.525 86.3423 340.389 86.4781C339.981 87.0211 338.078 89.872 338.078 90.4151H338.486V90.2793H338.622C338.758 90.5508 339.166 91.2296 339.166 91.3654C339.166 91.7726 338.622 92.0441 338.622 92.5872V92.9945C338.622 93.266 338.894 93.4017 338.894 93.9448V94.7593C353.711 95.5739 364.722 100.054 375.053 104.127C391.91 110.915 406.863 116.888 433.099 104.534C433.099 104.127 433.235 104.127 433.235 103.584C431.739 103.991 432.555 103.448 431.467 104.398C431.06 104.67 430.108 104.67 429.428 104.805C428.613 104.941 427.933 104.941 427.389 105.348C427.117 105.484 426.982 105.756 426.574 105.891C426.03 106.027 426.166 105.756 425.622 105.756H425.486C425.078 105.756 424.399 106.842 423.583 106.435C423.175 106.299 422.224 105.348 422.224 104.941H421.68C421.952 104.67 422.496 104.398 422.496 104.127C422.496 103.448 421.408 103.312 420.864 102.226C420.592 101.683 420.185 101.819 419.777 101.547C419.641 101.411 419.505 101.276 419.369 101.14C400.882 106.027 388.239 100.868 374.374 95.3023C364.586 91.3654 354.119 87.2926 340.661 86.2065ZM350.177 76.8392C350.177 77.1107 350.313 77.2465 350.313 77.2465C350.313 78.1968 347.458 79.4186 346.371 79.6901C345.419 79.8259 345.283 80.5047 344.739 81.3193C343.788 82.9483 343.652 82.1338 342.972 82.8126C342.564 83.2199 342.428 83.7629 342.156 84.3059C355.206 85.5278 365.402 89.6005 374.917 93.4017C387.967 98.6963 399.93 103.448 416.922 99.5109C416.65 99.3751 416.65 99.6466 416.378 99.2393C415.563 98.1533 415.835 97.8818 415.291 96.6599C414.611 94.7593 412.572 95.7096 412.436 92.3157C412.436 92.1799 412.436 92.0442 412.436 92.0442C397.483 94.2163 386.336 89.7363 374.102 84.849C367.033 81.7265 359.285 78.6041 350.177 76.8392ZM373.15 69.101H372.742C372.471 69.101 372.471 69.2368 372.471 69.3725H372.199C371.927 69.3725 371.927 69.101 371.519 69.101C371.111 69.101 370.839 69.7798 370.16 69.7798C369.616 69.7798 369.48 69.3725 369.072 69.3725H366.625C365.402 69.3725 364.042 69.7798 363.227 70.3228C361.596 70.3228 361.731 71.2731 360.644 71.2731H360.508C360.372 71.2731 359.964 71.0016 359.828 70.8659C359.556 70.8659 359.556 71.0016 359.421 71.0016C359.421 71.0016 358.741 70.5943 357.517 70.5943L357.11 69.7798C356.43 69.9156 356.43 69.9156 356.158 70.4586C356.022 70.5943 355.886 70.8659 355.75 71.0016C355.614 71.2731 355.614 71.4089 355.478 71.6804C354.935 72.495 354.255 72.6307 353.303 73.038C351.944 73.581 352.08 73.581 351.4 74.6671C351.4 74.8029 351.264 74.9386 351.128 75.0744C360.236 76.975 367.849 79.9617 375.053 82.9483C386.744 87.5641 397.483 91.9084 411.621 90.0078C410.941 89.329 410.261 88.9217 409.717 87.8356L410.125 87.4284L407.407 83.6271V83.2199C406.727 82.2696 405.232 80.5047 404.824 79.4186C405.367 79.8259 406.591 82.2696 407.135 82.2696C407.407 82.2696 407.814 81.455 407.814 81.3193V80.3689V79.5544C407.814 79.4186 406.727 77.7895 406.727 76.975C405.911 76.975 405.911 77.2465 405.232 77.2465H404.552C404.008 77.2465 403.6 76.5677 402.785 76.5677H402.513C401.289 76.5677 401.561 77.9253 399.522 77.518C398.299 77.2465 397.347 76.7035 395.988 76.7035C395.852 76.8392 395.852 76.8392 395.58 76.8392H395.308C395.172 76.8392 394.764 76.5677 394.492 76.4319C394.221 76.5677 394.085 76.5677 393.813 76.5677H392.725C392.453 76.5677 392.046 75.3459 390.278 75.3459C389.463 75.3459 388.783 75.6174 388.375 76.0247C387.56 76.8392 388.647 77.6538 388.647 77.7895C388.647 78.061 388.103 78.7398 387.696 78.7398C387.288 78.8756 386.608 78.4683 386.336 78.3326C385.249 77.7895 384.841 77.3823 383.346 77.518L382.666 76.8392V76.2962C382.258 75.6174 381.85 75.6174 381.035 75.3459C379.675 74.8029 379.539 75.4816 379.131 75.4816C378.452 75.4816 377.5 74.5313 377.228 74.3956V73.9883C376.685 73.9883 376.005 73.8525 376.005 73.3095C376.005 72.9022 377.092 72.495 377.092 71.8162C377.092 71.2731 376.685 70.8659 376.549 70.4586C376.821 70.0513 377.364 69.7798 377.364 69.3725C377.364 69.2368 377.228 69.101 377.092 69.101C376.956 69.101 376.685 69.2368 376.549 69.3725C376.141 69.101 376.005 68.6937 375.461 68.6937H375.325C374.917 68.6937 374.646 69.101 374.238 69.101C374.102 69.3725 373.694 69.101 373.15 69.101Z" fill="#22B04C"/>
<path d="M139.746 106.57V97.0673H163.807V106.57H139.746Z" fill="white"/>
<path d="M180.523 78.1968V124.083H169.648V78.1968H155.103V68.558H195.068V78.1968H180.523Z" fill="white"/>
<path d="M227.153 124.083L216.278 101.955H208.529V124.083H197.654V68.558H219.404C222.259 68.558 224.706 68.9653 227.017 69.9156C229.192 70.8659 231.095 72.0877 232.726 73.581C234.222 75.0744 235.445 76.975 236.261 79.0114C237.076 81.0477 237.484 83.2199 237.484 85.6635C237.484 87.6999 237.212 89.4648 236.668 90.9581C236.125 92.4514 235.445 93.9448 234.493 95.1666C233.542 96.3884 232.454 97.4745 231.231 98.289C230.007 99.1036 228.784 99.7824 227.425 100.325L239.795 124.219H227.153V124.083ZM224.434 80.2332C222.939 78.8756 221.036 78.1968 218.725 78.1968H208.529V92.723H218.725C221.172 92.723 223.075 92.0442 224.434 90.6866C225.929 89.329 226.609 87.5641 226.609 85.392C226.609 83.3556 225.929 81.5908 224.434 80.2332Z" fill="white"/>
<path d="M281.663 103.041C281.663 105.077 281.391 107.113 281.119 108.878C280.711 110.643 280.167 112.408 279.488 114.037C278.672 115.666 277.585 117.159 276.225 118.517C274.186 120.553 272.011 122.047 269.564 122.997C267.117 124.083 264.399 124.49 261.136 124.49C258.01 124.49 255.155 123.947 252.708 122.997C250.261 121.911 248.086 120.418 246.047 118.517C244.688 117.159 243.6 115.666 242.785 114.037C241.969 112.408 241.561 110.779 241.153 108.878C240.881 107.113 240.61 105.077 240.61 103.041C240.61 101.004 240.474 98.6962 240.474 96.3883C240.474 93.9447 240.474 91.7726 240.61 89.7362C240.61 87.6998 240.881 85.6634 241.153 83.8986C241.425 82.1337 241.969 80.3689 242.785 78.7398C243.6 77.1107 244.688 75.6173 246.047 74.2597C248.086 72.2234 250.261 70.73 252.708 69.7797C255.155 68.6937 258.01 68.2864 261.136 68.2864C264.263 68.2864 267.117 68.8294 269.564 69.7797C272.011 70.8658 274.186 72.3591 276.225 74.2597C277.585 75.6173 278.672 77.1107 279.488 78.7398C280.303 80.3689 280.847 81.998 281.119 83.8986C281.391 85.6634 281.663 87.6998 281.663 89.7362C281.663 91.7726 281.799 94.0805 281.799 96.3883C281.663 98.6962 281.663 101.004 281.663 103.041ZM270.788 89.7362C270.652 87.9713 270.516 86.6138 270.38 85.3919C270.108 84.3059 269.836 83.3556 269.564 82.6768C269.156 81.998 268.749 81.3192 268.205 80.7761C267.389 79.8258 266.438 79.147 265.214 78.604C263.991 78.061 262.767 77.7895 261.136 77.7895C259.641 77.7895 258.281 78.061 257.058 78.604C255.835 79.147 254.883 79.8258 254.067 80.7761C253.524 81.3192 253.116 81.998 252.844 82.6768C252.572 83.3556 252.164 84.3059 252.028 85.3919C251.756 86.478 251.621 87.9713 251.621 89.7362C251.485 91.501 251.485 93.6732 251.485 96.3883C251.485 99.1035 251.485 101.276 251.621 103.041C251.756 104.805 251.892 106.163 252.028 107.385C252.3 108.471 252.572 109.421 252.844 110.1C253.116 110.779 253.66 111.458 254.067 112.001C254.883 112.951 255.835 113.63 257.058 114.173C258.281 114.716 259.641 114.987 261.136 114.987C262.631 114.987 263.991 114.716 265.214 114.173C266.438 113.63 267.389 112.951 268.205 112.001C268.749 111.458 269.156 110.779 269.564 110.1C269.972 109.421 270.244 108.471 270.38 107.385C270.652 106.299 270.788 104.805 270.788 103.041C270.924 101.276 270.924 99.1035 270.924 96.3883C270.924 93.6732 270.788 91.501 270.788 89.7362Z" fill="white"/>
<path d="M319.454 124.083L297.432 90.0078V124.083H286.557V68.558H296.208L318.23 102.633V68.558H329.105V124.083H319.454Z" fill="white"/>
<path d="M37.792 71.5448V83.763V124.083H48.667V90.1437L86.4577 112.408L113.373 96.5243V84.3061L86.4577 100.326L37.792 71.5448Z" fill="#22B04C"/>
<path d="M86.4586 77.2466L37.793 48.6016V60.6841L86.4586 89.3291L124.249 67.0647V77.9254V90.1436V124.083H134.988V83.763V71.5447V60.6841V57.0186V48.6016L86.4586 77.2466Z" fill="#22B04C"/>
<path d="M149.26 133.179C134.986 152.321 112.149 164.675 86.4563 164.675C43.0922 164.675 8.02032 129.649 8.02032 86.3423C8.02032 43.0354 43.0922 8.00974 86.4563 8.00974C120.305 8.00974 149.124 29.4595 160.135 59.4621H168.563C157.28 24.9795 124.791 0 86.4563 0C38.7422 0 0 38.6911 0 86.3423C0 133.993 38.7422 172.685 86.4563 172.685C116.906 172.685 143.686 156.937 159.047 133.315H149.26V133.179Z" fill="white"/>
<path d="M341.613 61.0913C341.341 61.7701 340.933 62.4489 340.389 62.9919C339.846 63.5349 339.302 63.9422 338.486 64.2137C337.807 64.4852 336.991 64.621 336.175 64.621C335.36 64.621 334.68 64.4852 333.864 64.2137C333.185 63.9422 332.505 63.5349 331.961 62.9919C331.418 62.4489 331.01 61.9058 330.738 61.0913C330.466 60.4125 330.33 59.598 330.33 58.7834C330.33 57.9689 330.466 57.2901 330.738 56.4755C331.01 55.7967 331.418 55.1179 331.961 54.5749C332.505 54.0319 333.049 53.6246 333.864 53.3531C334.544 53.0816 335.36 52.9458 336.175 52.9458C336.991 52.9458 337.671 53.0816 338.486 53.3531C339.166 53.6246 339.846 54.0319 340.389 54.5749C340.933 55.1179 341.341 55.661 341.613 56.4755C341.885 57.1543 342.021 57.9689 342.021 58.7834C342.021 59.598 341.885 60.4125 341.613 61.0913ZM340.933 56.8828C340.661 56.204 340.254 55.661 339.846 55.2537C339.438 54.8464 338.894 54.4391 338.214 54.1676C337.535 53.8961 336.991 53.7603 336.311 53.7603C335.632 53.7603 334.952 53.8961 334.408 54.1676C333.729 54.4391 333.321 54.8464 332.777 55.2537C332.369 55.661 331.961 56.204 331.689 56.8828C331.418 57.5616 331.282 58.1046 331.282 58.7834C331.282 59.4622 331.418 60.141 331.689 60.684C331.961 61.3628 332.369 61.9058 332.777 62.3131C333.185 62.7204 333.729 63.1277 334.408 63.3992C335.088 63.6707 335.632 63.8065 336.311 63.8065C336.991 63.8065 337.671 63.6707 338.214 63.3992C338.894 63.1277 339.302 62.7204 339.846 62.3131C340.254 61.9058 340.661 61.3628 340.933 60.684C341.205 60.0052 341.341 59.4622 341.341 58.7834C341.341 58.1046 341.205 57.4258 340.933 56.8828ZM337.807 62.0416L336.175 59.3264H335.088V62.0416H334.408V55.661H336.447C336.719 55.661 336.991 55.661 337.263 55.7967C337.535 55.9325 337.671 56.0682 337.943 56.204C338.079 56.3398 338.214 56.6113 338.35 56.747C338.486 57.0185 338.486 57.2901 338.486 57.5616C338.486 58.1046 338.35 58.3761 338.079 58.7834C337.807 59.0549 337.399 59.3264 336.991 59.4622L338.622 62.1774H337.807V62.0416ZM337.399 56.6113C337.127 56.3398 336.855 56.204 336.447 56.204H335.224V58.6476H336.447C336.855 58.6476 337.127 58.5119 337.399 58.2404C337.671 57.9689 337.807 57.6973 337.807 57.4258C337.807 57.1543 337.671 56.8828 337.399 56.6113Z" fill="white"/>
<path fill-rule="evenodd" clip-rule="evenodd" d="M384.159 68.4221C384.159 68.6936 384.295 68.9651 384.295 69.2366C384.703 69.3724 385.111 69.5082 385.519 69.7797C386.878 68.9651 388.509 68.5579 390.276 68.5579C391.228 68.5579 392.044 68.6936 392.859 68.9651C396.258 65.0281 401.151 62.4487 406.861 62.4487C416.92 62.4487 425.076 70.5942 425.076 80.6403C425.076 85.1204 423.445 89.0574 420.862 92.3156C421.27 92.8586 421.542 93.5374 421.814 94.2162C421.95 94.4877 421.95 94.7592 422.086 95.0307C422.63 95.3022 423.173 95.5737 423.717 95.981C424.805 96.5241 425.62 97.3386 426.3 98.1532C426.436 98.2889 426.436 98.2889 426.572 98.4247C426.98 98.2889 427.251 98.2889 427.523 98.2889C427.659 96.6598 428.203 94.895 429.019 93.2659C430.378 90.958 432.417 89.1931 435 87.9713C433.369 85.9349 432.417 83.3555 432.417 80.3688C432.417 77.6537 433.369 75.0743 435 72.7664C432.417 71.8161 430.378 70.0512 429.019 67.4718C427.659 65.1639 427.251 62.4487 427.387 59.7336C424.805 60.1408 422.086 59.7336 419.639 58.1045C417.056 56.7469 415.289 54.7105 414.337 52.1311C412.298 53.7602 409.58 54.7105 406.725 54.7105C403.87 54.7105 401.287 53.7602 399.112 52.1311C398.161 54.7105 396.394 56.7469 393.811 58.1045C391.228 59.7336 388.509 60.1408 386.062 59.7336C386.334 62.4487 385.79 65.1639 384.431 67.4718C384.567 67.8791 384.295 68.1506 384.159 68.4221Z" fill="#FCCB3A"/>
<path fill-rule="evenodd" clip-rule="evenodd" d="M402.375 167.118L402.239 167.254C401.423 168.205 400.608 169.019 399.52 169.834C398.025 170.92 398.297 171.327 395.714 171.327C395.442 171.463 394.898 171.87 394.491 171.87H394.355C393.539 171.87 393.675 171.463 392.451 171.599C391.228 171.734 391.772 171.463 390.82 172.142H389.461C389.053 172.413 388.509 172.82 387.965 172.549C387.694 172.413 387.558 172.277 387.286 172.006C387.15 171.87 386.742 171.734 386.606 171.599L386.198 171.87V171.327C386.198 171.055 386.334 171.191 386.334 170.92C386.334 170.648 385.791 170.105 385.655 169.834C385.791 169.698 386.062 169.291 386.062 169.019V168.34C386.062 167.797 384.839 166.847 384.431 165.489C383.887 163.589 383.615 163.996 382.8 162.774C382.664 162.638 382.664 162.503 382.528 162.367C388.917 164.946 395.306 166.711 402.375 167.118ZM377.906 150.149C378.314 150.692 378.45 151.506 378.858 152.049C379.537 153 380.897 154.629 380.897 156.122V156.258C380.897 156.665 380.761 157.615 381.033 158.158C381.305 158.701 381.44 159.109 381.44 159.923V160.059C388.645 162.774 395.85 164.946 404.142 165.082C404.278 164.946 404.55 164.675 404.686 164.539C405.366 164.132 406.045 161.824 406.317 160.874L405.909 160.602C406.997 158.973 408.9 159.652 409.987 158.023L410.123 156.394C398.025 157.48 388.101 154.221 377.906 150.149ZM429.562 151.099C429.426 151.506 429.155 151.778 428.883 152.185C428.475 152.864 428.339 153.407 428.067 154.086C427.795 154.764 427.387 155.443 427.116 155.986C426.844 156.665 426.708 157.344 426.3 158.023C426.028 158.701 425.756 159.244 425.076 159.652C424.669 159.923 424.261 159.652 423.853 159.923C423.445 160.059 423.445 160.331 422.766 160.331H422.494C421.814 160.331 420.591 158.837 420.591 158.023C420.591 157.615 420.998 157.48 420.998 157.208C420.998 156.665 420.591 156.258 420.591 155.443C420.591 154.9 420.726 154.493 420.998 154.221C423.717 153.271 426.572 152.321 429.562 151.099ZM379.673 140.238C379.13 141.324 378.042 141.596 377.77 142.954C377.634 143.768 377.498 144.583 377.226 145.397C376.955 146.076 376.955 146.755 376.955 147.569C387.422 151.778 397.481 155.443 410.123 154.086C410.123 153.95 410.123 153.814 410.123 153.543C410.123 152.728 409.716 153.135 409.716 152.457V152.321C409.716 151.642 411.483 150.827 412.026 150.284C412.706 149.606 413.522 148.791 414.337 148.248C415.153 147.841 416.648 147.434 417.192 146.755C417.6 146.347 418.959 144.854 418.959 144.175V144.04V143.904C403.055 147.977 391.5 144.718 379.673 140.238ZM423.309 147.298C423.581 146.483 423.717 146.483 424.397 146.212C424.805 145.94 425.484 145.94 426.028 145.669C426.708 145.397 426.708 144.99 427.251 144.718C427.795 144.447 428.203 144.447 428.475 143.768C428.747 143.089 428.883 142.954 429.426 142.546C430.106 142.139 430.242 142.139 430.106 141.189C429.97 140.646 430.65 140.103 431.058 140.103C431.058 140.374 431.601 141.867 431.737 142.41C431.873 143.089 432.145 144.175 432.145 144.99V145.533C432.145 145.94 431.873 146.212 431.601 146.212C431.33 146.212 431.33 146.076 431.33 145.804H430.922C430.922 146.347 431.058 146.755 430.922 147.162C430.786 147.705 430.514 147.569 430.378 147.977C430.378 148.112 430.242 148.248 430.242 148.384C427.659 149.47 425.212 150.42 422.766 151.235L422.494 148.655C422.494 148.384 423.173 147.705 423.309 147.298ZM375.187 127.749C375.595 128.292 375.595 128.699 376.139 129.106C376.411 129.378 377.09 130.056 377.226 130.192C377.362 130.464 377.77 131.957 377.77 131.957C378.042 132.229 378.042 132.093 378.178 132.636C378.314 132.907 378.45 133.179 378.586 133.45C378.722 133.722 379.265 134.808 379.265 135.08V135.351C379.265 135.758 378.858 135.623 378.858 136.166V136.301C378.858 136.844 379.13 137.252 379.401 137.795C391.228 142.41 402.647 145.94 418.551 141.867V138.609V138.202C418.551 137.252 417.872 137.659 417.6 136.98C417.464 136.709 417.464 136.437 417.464 136.166C417.464 135.758 417.192 135.623 417.192 135.351V133.722C400.336 137.523 388.237 132.907 375.187 127.749ZM340.523 107.521C340.931 107.928 341.203 108.199 341.339 108.471C340.931 109.15 341.203 109.421 341.475 109.828V110.507C341.611 110.779 342.97 111.593 343.378 111.865C343.786 112.136 343.922 112.408 344.194 112.679C344.465 112.951 344.873 113.087 345.145 113.222C345.961 113.765 345.961 114.444 346.64 114.852C346.912 114.987 348.544 115.938 348.815 115.938C350.039 115.938 350.447 114.852 352.758 114.852H353.03C353.845 114.852 354.525 114.852 355.34 114.987C356.156 114.987 356.7 115.53 357.108 115.53H357.244C357.515 115.53 358.059 114.852 358.739 114.852C359.826 114.852 359.419 114.309 360.234 114.173C360.778 114.037 360.778 114.309 361.05 114.173C361.458 114.037 361.186 113.901 361.73 113.765C362.409 113.494 362.817 113.494 363.769 113.494H364.584C368.119 113.494 366.895 116.616 368.526 116.616H368.662C369.342 116.616 369.75 116.481 370.294 116.481C371.109 116.481 371.653 116.073 371.789 116.073C371.925 116.073 372.469 117.024 372.876 117.295C373.692 117.702 373.556 117.838 373.964 118.517C373.692 119.06 373.828 119.06 373.692 119.875C373.692 120.282 373.284 120.418 373.284 121.096C373.284 121.639 373.556 121.368 373.42 121.775C373.42 122.047 373.284 122.318 373.148 122.59C373.012 122.997 372.74 123.812 372.197 123.812C372.197 124.083 372.197 124.355 372.333 124.49C373.148 124.762 373.964 125.169 374.915 125.441C387.83 130.6 399.656 135.351 416.376 131.686V131.414C416.376 131.278 416.92 129.513 417.056 129.378C417.464 128.835 417.736 128.563 418.144 127.884C418.28 127.477 418.416 127.341 418.416 126.934C418.551 126.391 418.687 126.663 419.095 126.255C419.639 125.848 420.047 125.305 420.319 124.762C420.591 124.355 420.998 123.54 421.406 123.269C421.814 122.861 422.222 122.454 422.63 121.911C422.901 121.639 423.173 121.368 423.445 121.096C402.511 128.02 389.053 122.59 373.964 116.616C364.584 112.815 354.117 108.607 340.523 107.521ZM338.076 96.7957C338.076 96.9315 338.076 97.203 337.94 97.4745C337.669 98.1533 337.804 98.1533 337.397 98.6963C337.261 98.8321 336.581 99.6466 336.581 99.6466C336.581 99.9181 337.125 101.14 337.397 101.411C337.261 101.683 337.125 101.819 337.125 102.226V103.176C337.669 103.312 337.533 104.127 338.076 104.127H338.62L338.756 105.077L339.164 105.348C353.845 106.163 364.992 110.643 375.323 114.716C390.956 120.961 405.094 126.663 428.067 117.431C429.155 116.345 429.97 115.123 430.786 113.63C431.058 113.087 431.194 112.272 431.466 111.593C431.737 110.915 432.009 110.372 432.281 109.693C432.553 109.15 432.961 108.471 433.097 107.928C433.233 107.385 433.233 107.113 433.233 106.706C406.861 118.789 391.636 112.679 374.508 105.891C363.905 101.819 352.894 97.4745 338.076 96.7957ZM340.659 86.2065C340.523 86.3423 340.523 86.3423 340.387 86.4781C339.979 87.0211 338.076 89.872 338.076 90.4151H338.484V90.2793H338.62C338.756 90.5508 339.164 91.2296 339.164 91.3654C339.164 91.7726 338.62 92.0441 338.62 92.5872V92.9945C338.62 93.266 338.892 93.4017 338.892 93.9448V94.7593C353.709 95.5739 364.72 100.054 375.051 104.127C391.908 110.915 406.861 116.888 433.097 104.534C433.097 104.127 433.233 104.127 433.233 103.584C431.737 103.991 432.553 103.448 431.466 104.398C431.058 104.67 430.106 104.67 429.426 104.805C428.611 104.941 427.931 104.941 427.387 105.348C427.116 105.484 426.98 105.756 426.572 105.891C426.028 106.027 426.164 105.756 425.62 105.756H425.484C425.076 105.756 424.397 106.842 423.581 106.435C423.173 106.299 422.222 105.348 422.222 104.941H421.678C421.95 104.67 422.494 104.398 422.494 104.127C422.494 103.448 421.406 103.312 420.862 102.226C420.591 101.683 420.183 101.819 419.775 101.547C419.639 101.411 419.503 101.276 419.367 101.14C400.88 106.027 388.237 100.868 374.372 95.3023C364.584 91.3654 354.117 87.2926 340.659 86.2065ZM350.175 76.8392C350.175 77.1107 350.311 77.2465 350.311 77.2465C350.311 78.1968 347.456 79.4186 346.369 79.6901C345.417 79.8259 345.281 80.5047 344.737 81.3193C343.786 82.9483 343.65 82.1338 342.97 82.8126C342.562 83.2199 342.426 83.7629 342.154 84.3059C355.205 85.5278 365.4 89.6005 374.915 93.4017C387.965 98.6963 399.928 103.448 416.92 99.5109C416.648 99.3751 416.648 99.6466 416.376 99.2393C415.561 98.1533 415.833 97.8818 415.289 96.6599C414.609 94.7593 412.57 95.7096 412.434 92.3157C412.434 92.1799 412.434 92.0442 412.434 92.0442C397.481 94.2163 386.334 89.7363 374.1 84.849C367.031 81.7265 359.283 78.6041 350.175 76.8392ZM373.148 69.101H372.74C372.469 69.101 372.469 69.2368 372.469 69.3725H372.197C371.925 69.3725 371.925 69.101 371.517 69.101C371.109 69.101 370.837 69.7798 370.158 69.7798C369.614 69.7798 369.478 69.3725 369.07 69.3725H366.623C365.4 69.3725 364.04 69.7798 363.225 70.3228C361.594 70.3228 361.729 71.2731 360.642 71.2731H360.506C360.37 71.2731 359.962 71.0016 359.826 70.8659C359.555 70.8659 359.555 71.0016 359.419 71.0016C359.419 71.0016 358.739 70.5943 357.515 70.5943L357.108 69.7798C356.428 69.9156 356.428 69.9156 356.156 70.4586C356.02 70.5943 355.884 70.8659 355.748 71.0016C355.612 71.2731 355.612 71.4089 355.476 71.6804C354.933 72.495 354.253 72.6307 353.301 73.038C351.942 73.581 352.078 73.581 351.398 74.6671C351.398 74.8029 351.262 74.9386 351.126 75.0744C360.234 76.975 367.847 79.9617 375.051 82.9483C386.742 87.5641 397.481 91.9084 411.619 90.0078C410.939 89.329 410.259 88.9217 409.716 87.8356L410.123 87.4284L407.405 83.6271V83.2199C406.725 82.2696 405.23 80.5047 404.822 79.4186C405.365 79.8259 406.589 82.2696 407.133 82.2696C407.405 82.2696 407.812 81.455 407.812 81.3193V80.3689V79.5544C407.812 79.4186 406.725 77.7895 406.725 76.975C405.909 76.975 405.909 77.2465 405.23 77.2465H404.55C404.006 77.2465 403.598 76.5677 402.783 76.5677H402.511C401.287 76.5677 401.559 77.9253 399.52 77.518C398.297 77.2465 397.345 76.7035 395.986 76.7035C395.85 76.8392 395.85 76.8392 395.578 76.8392H395.306C395.17 76.8392 394.762 76.5677 394.491 76.4319C394.219 76.5677 394.083 76.5677 393.811 76.5677H392.723C392.451 76.5677 392.044 75.3459 390.276 75.3459C389.461 75.3459 388.781 75.6174 388.373 76.0247C387.558 76.8392 388.645 77.6538 388.645 77.7895C388.645 78.061 388.101 78.7398 387.694 78.7398C387.286 78.8756 386.606 78.4683 386.334 78.3326C385.247 77.7895 384.839 77.3823 383.344 77.518L382.664 76.8392V76.2962C382.256 75.6174 381.848 75.6174 381.033 75.3459C379.673 74.8029 379.537 75.4816 379.13 75.4816C378.45 75.4816 377.498 74.5313 377.226 74.3956V73.9883C376.683 73.9883 376.003 73.8525 376.003 73.3095C376.003 72.9022 377.09 72.495 377.09 71.8162C377.09 71.2731 376.683 70.8659 376.547 70.4586C376.819 70.0513 377.362 69.7798 377.362 69.3725C377.362 69.2368 377.226 69.101 377.09 69.101C376.955 69.101 376.683 69.2368 376.547 69.3725C376.139 69.101 376.003 68.6937 375.459 68.6937H375.323C374.915 68.6937 374.644 69.101 374.236 69.101C374.1 69.3725 373.692 69.101 373.148 69.101Z" fill="#22B04C"/>
<path fill-rule="evenodd" clip-rule="evenodd" d="M394.629 69.644C395.309 69.644 395.852 69.7798 396.532 69.9155C397.62 69.9155 398.571 70.1871 399.251 70.3228C400.202 69.9155 401.29 69.644 402.513 69.644H402.785C403.873 69.644 404.824 69.7798 405.504 70.0513C405.912 70.0513 406.32 69.9155 406.727 69.9155C409.854 69.9155 412.573 72.0877 413.252 75.0743C413.252 75.2101 413.388 75.3459 413.388 75.3459C413.796 76.1604 414.476 77.3822 414.476 79.2829V80.2332V80.9119C414.476 81.1835 414.476 81.455 414.476 81.7265L415.427 83.0841C415.835 83.6271 416.107 84.1701 416.379 84.8489C416.379 84.8489 416.379 84.8489 416.515 84.9847C417.331 85.7992 417.874 86.8853 418.146 87.9714C418.554 88.6502 418.962 89.4647 419.098 90.2793C419.913 90.9581 420.865 92.0441 421.545 93.5375C424.807 90.0078 426.71 85.392 426.71 80.2332C426.71 69.3725 417.874 60.5482 406.999 60.5482C400.474 60.5482 394.765 63.6707 391.23 68.4222C392.59 68.8295 393.677 69.101 394.629 69.644Z" fill="#F26C11"/>
<path fill-rule="evenodd" clip-rule="evenodd" d="M402.511 69.7798H402.783C403.871 69.7798 404.822 69.9155 405.502 70.187C405.91 70.187 406.317 70.0513 406.725 70.0513C409.852 70.0513 412.571 72.2234 413.25 75.2101C413.25 75.3458 413.386 75.4816 413.386 75.4816C413.794 76.2961 414.474 77.518 414.474 79.4186V80.3689V81.0477C414.474 81.3192 414.474 81.5907 414.474 81.8622L415.425 83.2198C415.833 83.7628 416.105 84.3059 416.377 84.9847C416.377 84.9847 416.377 84.9847 416.513 85.1204C416.921 85.6635 417.328 86.2065 417.6 86.7495C418.688 84.8489 419.367 82.6768 419.367 80.3689C419.367 73.581 413.794 68.0149 406.997 68.0149C404.55 68.0149 402.239 68.6937 400.2 70.0513C401.016 69.7797 401.831 69.7798 402.511 69.7798Z" fill="#FF0000"/>
</svg>
