<svg width="13" height="14" viewBox="0 0 13 14" fill="none" xmlns="http://www.w3.org/2000/svg">
<path fill-rule="evenodd" clip-rule="evenodd" d="M2.74187 0.232929L4.64608 2.31025C4.90575 2.6132 4.90575 3.08925 4.6028 3.34892L3.39103 4.47413C3.00153 4.82035 3.04481 5.08002 3.34775 5.42624L7.71879 10.1435C8.02173 10.4897 8.2814 10.533 8.62762 10.2301L9.83939 9.10483C10.1423 8.80189 10.6184 8.84517 10.8781 9.14811L12.8255 11.2254C13.0852 11.5284 13.0419 11.9612 12.7823 12.2641C9.66628 15.5965 5.55491 12.3507 3.2612 9.84055C0.967487 7.33045 -1.88883 3.00269 1.70321 0.189652C2.00615 -0.0700137 2.43892 -0.0700137 2.74187 0.232929Z" fill="#22B04C"/>
</svg>
