<svg width="158" height="50" viewBox="0 0 158 50" fill="none" xmlns="http://www.w3.org/2000/svg">
<path d="M77.05 43.925L75.525 42.4C76.65 40.75 76.625 38.775 76.625 36.1C76.625 33.025 76.65 30.8 74.85 29C73.6 27.75 72.075 27.05 70.05 27.05C68.025 27.05 66.475 27.75 65.225 29C63.425 30.8 63.475 33.025 63.475 36.1C63.475 39.175 63.425 41.4 65.225 43.2C66.475 44.45 68.025 45.15 70.05 45.15C71.45 45.15 72.65 44.825 73.65 44.175L75.225 45.75L77.05 43.925ZM73.15 36.1C73.15 37.9 73.1 38.925 72.825 39.7L71.5 38.375L69.65 40.2L71.2 41.725C70.875 41.95 70.475 42.05 70.05 42.05C69.1 42.05 68.3 41.675 67.8 41.1C67.125 40.35 66.95 39.525 66.95 36.1C66.95 32.675 67.125 31.85 67.8 31.1C68.3 30.525 69.1 30.15 70.05 30.15C71 30.15 71.775 30.525 72.275 31.1C72.95 31.85 73.15 32.675 73.15 36.1ZM90.5645 45V31.975H87.3145V39.85C87.3145 41.625 86.1645 42.225 85.1395 42.225C84.1145 42.225 82.9895 41.625 82.9895 39.85V31.975H79.7395V40.3C79.7395 41.725 80.0145 42.95 81.0645 44C81.7895 44.725 82.8395 45.15 84.1395 45.15C85.3395 45.15 86.5395 44.7 87.3895 43.8V45H90.5645ZM104.071 45V36.425C104.071 33.375 102.171 31.825 98.5205 31.825C96.3455 31.825 95.0955 32.225 93.8205 33.625L95.8955 35.65C96.5705 34.875 97.1455 34.575 98.3955 34.575C100.121 34.575 100.821 35.2 100.821 36.625V37.275H97.7455C94.7205 37.275 93.2955 38.975 93.2955 41.05C93.2955 42.2 93.6705 43.25 94.3705 43.975C95.1455 44.75 96.2205 45.125 97.6955 45.125C99.1955 45.125 100.021 44.75 100.896 43.875V45H104.071ZM100.821 40.2C100.821 41 100.696 41.525 100.346 41.85C99.7705 42.4 99.1955 42.475 98.2955 42.475C97.0205 42.475 96.4205 41.875 96.4205 40.975C96.4205 40.05 97.0705 39.5 98.2455 39.5H100.821V40.2ZM113.1 45V42.25H111.85C111.025 42.25 110.7 41.85 110.7 41.075V27.2H107.45V41.275C107.45 43.125 108.575 45 111.25 45H113.1ZM118.955 45V31.975H115.705V45H118.955ZM118.98 29.75V27.1H115.655V29.75H118.98ZM128.44 45V42.25H127.265C126.49 42.25 126.14 41.825 126.14 41.075V34.825H128.44V32.35H126.14V28.5H122.89V32.35H121.515V34.825H122.89V41.275C122.89 43.125 124.015 45 126.665 45H128.44ZM141.804 31.975H138.379L135.779 40.025L133.079 31.975H129.654L134.104 44.075L133.554 45.675C133.229 46.625 132.854 46.85 131.929 46.85H131.179V49.775H132.454C133.529 49.775 134.504 49.525 135.254 48.775C135.654 48.375 135.954 47.825 136.229 47.1L141.804 31.975Z" fill="#22B04C"/>
<path d="M71.758 14.948C71.758 12.381 71.758 11.191 70.619 10.052C69.803 9.236 68.732 8.794 67.525 8.794C66.318 8.794 65.247 9.236 64.431 10.052C63.292 11.191 63.292 12.381 63.292 14.948C63.292 17.515 63.292 18.705 64.431 19.844C65.247 20.66 66.318 21.102 67.525 21.102C68.732 21.102 69.803 20.66 70.619 19.844C71.758 18.705 71.758 17.515 71.758 14.948ZM70.466 14.948C70.466 17.481 70.381 18.297 69.616 19.079C69.089 19.623 68.324 19.946 67.525 19.946C66.726 19.946 65.961 19.623 65.434 19.079C64.669 18.297 64.584 17.481 64.584 14.948C64.584 12.415 64.669 11.599 65.434 10.817C65.961 10.273 66.726 9.95 67.525 9.95C68.324 9.95 69.089 10.273 69.616 10.817C70.381 11.599 70.466 12.415 70.466 14.948ZM81.0806 21V12.636H79.8566V17.787C79.8566 19.249 79.0236 20.014 77.7656 20.014C76.5076 20.014 75.7256 19.266 75.7256 17.787V12.636H74.5016V17.974C74.5016 18.943 74.7566 19.742 75.3516 20.32C75.8616 20.83 76.6096 21.102 77.5106 21.102C78.4456 21.102 79.2786 20.745 79.8736 20.065V21H81.0806ZM87.3455 21V19.946H86.6995C85.9175 19.946 85.5605 19.487 85.5605 18.722V13.622H87.3455V12.687H85.5605V10.069H84.3365V12.687H83.2825V13.622H84.3365V18.756C84.3365 19.997 85.0505 21 86.4785 21H87.3455ZM95.8121 18.552C95.8121 16.988 94.8091 16.427 93.3471 16.291L92.0041 16.172C90.9501 16.087 90.5421 15.662 90.5421 14.948C90.5421 14.098 91.1881 13.571 92.4121 13.571C93.2791 13.571 94.0441 13.775 94.6391 14.234L95.4381 13.435C94.6901 12.823 93.6191 12.534 92.4291 12.534C90.6441 12.534 89.3521 13.452 89.3521 14.982C89.3521 16.359 90.2191 17.09 91.8511 17.226L93.2281 17.345C94.1971 17.43 94.6221 17.838 94.6221 18.569C94.6221 19.555 93.7721 20.048 92.3951 20.048C91.3581 20.048 90.4571 19.776 89.7941 19.079L88.9781 19.895C89.8961 20.779 91.0011 21.102 92.4121 21.102C94.4351 21.102 95.8121 20.167 95.8121 18.552ZM101.258 21V19.946H100.612C99.8296 19.946 99.4726 19.487 99.4726 18.722V13.622H101.258V12.687H99.4726V10.069H98.2486V12.687H97.1946V13.622H98.2486V18.756C98.2486 19.997 98.9626 21 100.391 21H101.258ZM109.523 21V15.322C109.523 13.503 108.418 12.534 106.174 12.534C104.814 12.534 103.964 12.806 103.216 13.775L104.049 14.54C104.542 13.843 105.086 13.588 106.157 13.588C107.687 13.588 108.299 14.2 108.299 15.424V16.223H105.783C103.913 16.223 102.893 17.175 102.893 18.637C102.893 19.3 103.114 19.929 103.522 20.337C104.049 20.881 104.729 21.102 105.885 21.102C107.007 21.102 107.619 20.881 108.299 20.201V21H109.523ZM108.299 18.042C108.299 18.739 108.163 19.215 107.874 19.487C107.347 19.997 106.718 20.048 106.004 20.048C104.678 20.048 104.083 19.589 104.083 18.62C104.083 17.651 104.695 17.141 105.953 17.141H108.299V18.042ZM119.084 21V15.645C119.084 14.676 118.812 13.894 118.217 13.316C117.707 12.806 116.976 12.534 116.075 12.534C115.14 12.534 114.324 12.874 113.729 13.554V12.636H112.505V21H113.729V15.849C113.729 14.387 114.545 13.622 115.803 13.622C117.061 13.622 117.86 14.37 117.86 15.849V21H119.084ZM128.256 21V8.896H127.032V13.605C126.352 12.738 125.587 12.534 124.669 12.534C123.819 12.534 123.071 12.823 122.629 13.265C121.779 14.115 121.609 15.509 121.609 16.818C121.609 18.127 121.779 19.521 122.629 20.371C123.071 20.813 123.819 21.102 124.669 21.102C125.587 21.102 126.369 20.881 127.049 19.997V21H128.256ZM127.032 16.818C127.032 18.45 126.76 20.014 124.941 20.014C123.122 20.014 122.833 18.45 122.833 16.818C122.833 15.186 123.122 13.622 124.941 13.622C126.76 13.622 127.032 15.186 127.032 16.818ZM132.538 21V12.636H131.314V21H132.538ZM132.623 10.256V8.879H131.246V10.256H132.623ZM142.193 21V15.645C142.193 14.676 141.921 13.894 141.326 13.316C140.816 12.806 140.085 12.534 139.184 12.534C138.249 12.534 137.433 12.874 136.838 13.554V12.636H135.614V21H136.838V15.849C136.838 14.387 137.654 13.622 138.912 13.622C140.17 13.622 140.969 14.37 140.969 15.849V21H142.193ZM151.331 21.255V12.636H150.124V13.622C149.444 12.738 148.696 12.534 147.778 12.534C146.928 12.534 146.18 12.823 145.738 13.265C144.905 14.098 144.718 15.39 144.718 16.75C144.718 18.11 144.905 19.402 145.738 20.235C146.18 20.677 146.911 20.983 147.761 20.983C148.662 20.983 149.427 20.762 150.107 19.895V21.204C150.107 22.632 149.427 23.771 147.812 23.771C146.843 23.771 146.418 23.482 145.806 22.938L145.007 23.72C145.891 24.519 146.588 24.842 147.846 24.842C150.039 24.842 151.331 23.329 151.331 21.255ZM150.107 16.75C150.107 18.314 149.852 19.878 148.033 19.878C146.214 19.878 145.942 18.314 145.942 16.75C145.942 15.186 146.214 13.622 148.033 13.622C149.852 13.622 150.107 15.186 150.107 16.75Z" fill="black"/>
<path fill-rule="evenodd" clip-rule="evenodd" d="M24 48C37.2548 48 48 37.2548 48 24C48 10.7452 37.2548 0 24 0C10.7452 0 0 10.7452 0 24C0 37.2548 10.7452 48 24 48Z" fill="#22B04C"/>
<path d="M37.9103 26.9286C37.8389 26.7143 37.696 26.5 37.5532 26.2857L37.3389 26.0714L35.8389 24L37.5532 21.7143C37.9103 21.2143 38.0532 20.6429 37.9817 20.0714C37.9103 19.5 37.5532 19 37.1246 18.6429C36.9103 18.5 36.696 18.4286 36.4817 18.3571L33.7675 17.4286V14.5714C33.7675 13.3571 32.7675 12.3571 31.5532 12.3571C31.3389 12.3571 31.0532 12.4286 30.8389 12.5L28.0532 13.3571L26.2675 10.9286C25.8389 10.3571 25.196 10 24.4817 10C23.7675 10 23.1246 10.3571 22.696 10.9286L20.9817 13.2857L18.2675 12.3571C18.0532 12.2857 17.8389 12.2143 17.5532 12.2143C16.6246 12.2143 15.7675 12.8571 15.4103 13.7143C15.3389 13.9286 15.2674 14.2143 15.2674 14.4286V17.3571L12.5532 18.2143C11.9817 18.4286 11.5532 18.7857 11.2675 19.2857C10.9817 19.7857 10.9103 20.4286 11.1246 21C11.196 21.2143 11.3389 21.4286 11.4817 21.6429L13.196 24L11.4817 26.4286C11.1246 26.9286 10.9817 27.5 11.0532 28.0714C11.1246 28.6429 11.4817 29.1429 11.9103 29.5C12.1246 29.6429 12.3389 29.7143 12.5532 29.7857L15.2674 30.7143V33.5714C15.2674 34.7857 16.2674 35.7857 17.4817 35.7857C17.696 35.7857 17.9817 35.7143 18.196 35.6429L20.9817 34.7857L22.696 37.0714C23.1246 37.6429 23.7675 38 24.4817 38C25.196 38 25.8389 37.6429 26.2675 37.0714L27.9817 34.7143L30.696 35.6429C30.9103 35.7143 31.196 35.7857 31.4103 35.7857C32.3389 35.7857 33.196 35.2143 33.4817 34.2857C33.5532 34 33.6246 33.7857 33.6246 33.5V30.5714L36.3389 29.6429C36.9103 29.4286 37.3389 29.0714 37.6246 28.5714C38.0532 28.0714 38.0532 27.5 37.9103 26.9286ZM36.196 27.7857C36.1246 27.9286 36.0532 28.0714 35.8389 28.1429L33.1246 29.0714C32.4103 29.2857 31.9103 30 31.9103 30.7857V33.6429C31.9103 33.7857 31.8389 33.9286 31.7674 34C31.696 34.0714 31.5532 34.1429 31.4103 34.1429C31.3389 34.1429 31.2675 34.1429 31.2675 34.1429L28.5532 33.2143C28.4103 33.1429 28.196 33.1429 28.0532 33.1429C27.4817 33.1429 26.9817 33.4286 26.6246 33.8571L24.9817 36.2143C24.9103 36.3571 24.7674 36.4286 24.5532 36.4286C24.4103 36.4286 24.2674 36.3571 24.196 36.2143L22.4817 33.9286C22.1246 33.5 21.6246 33.2143 21.0532 33.2143C20.8389 33.2143 20.696 33.2143 20.4817 33.2857L17.7674 34.2143C17.696 34.2143 17.696 34.2143 17.6246 34.2143C17.5532 34.2143 17.4103 34.2143 17.3389 34.1429C17.196 34.0714 17.1246 33.9286 17.1246 33.7143V30.8571C17.1246 30.0714 16.6246 29.4286 15.9103 29.1429L13.196 28.2857C13.0532 28.2143 12.9103 28.1429 12.8389 27.9286C12.7674 27.7857 12.8389 27.6429 12.9103 27.5L14.6246 25.2143C15.0532 24.5714 15.0532 23.7143 14.6246 23.1429L12.9103 20.7143C12.8389 20.6429 12.7674 20.5 12.8389 20.3571C12.8389 20.2143 12.9103 20.1429 13.0532 20C13.1246 20 13.1246 19.9286 13.196 19.9286L15.9103 19C16.6246 18.7857 17.1246 18.0714 17.1246 17.2857V14.4286C17.1246 14.2857 17.196 14.1429 17.2675 14.0714C17.3389 14 17.4817 13.9286 17.6246 13.9286C17.696 13.9286 17.7674 13.9286 17.7674 13.9286L20.4817 14.8571C20.6246 15 20.7674 15 20.9817 15C21.5532 15 22.1246 14.7143 22.4103 14.2143L24.0532 11.8571C24.1246 11.7143 24.2675 11.6429 24.4817 11.6429C24.6246 11.6429 24.7675 11.7143 24.8389 11.8571L26.5532 14.1429C26.9103 14.5714 27.4103 14.8571 27.9817 14.8571C28.196 14.8571 28.3389 14.8571 28.5532 14.7857L31.2675 14C31.3389 14 31.3389 14 31.4103 14C31.4817 14 31.6246 14 31.696 14.0714C31.8389 14.1429 31.9103 14.2857 31.9103 14.5V17.3571C31.9103 18.1429 32.4103 18.7857 33.1246 19.0714L35.8389 19.9286C35.9817 20 36.1246 20.0714 36.196 20.2857C36.2675 20.4286 36.196 20.5714 36.1246 20.7143L34.4103 23C33.9817 23.6429 33.9817 24.5 34.4103 25.0714L36.1246 27.3571C36.196 27.4286 36.2675 27.6429 36.196 27.7857Z" fill="white"/>
<path d="M29.1952 21.2143C29.0523 21.2143 28.9809 21.2143 28.838 21.2143H27.5523C27.838 19.2143 26.9809 18.2143 26.4095 17.7143C25.7666 17.1428 24.9095 17 24.1237 17.2857C23.6952 17.4285 23.4809 17.8571 23.4809 18.2857C23.4809 18.5714 23.4809 18.7857 23.4809 19C23.5523 19.6428 23.4809 20.2857 23.2666 20.9285C23.1237 21.2857 22.4095 21.6428 21.6952 21.9285C21.5523 21.8571 21.4095 21.7857 21.2666 21.7857H18.4095C18.0523 21.7857 17.7666 22.0714 17.7666 22.4285V28.3571C17.7666 28.7143 18.0523 29 18.4095 29H21.338C21.4809 29 21.6952 28.9285 21.7666 28.8571L22.9809 29.2857C23.6952 29.5714 24.4809 29.7143 25.2666 29.7143H28.7666C29.7666 29.7143 30.6237 29 30.7666 28L31.338 24C31.4809 22.6428 30.5523 21.3571 29.1952 21.2143ZM20.6237 27.6428H19.0523V23.0714H20.6237V27.6428ZM29.4095 27.7857C29.338 28.1428 29.0523 28.3571 28.7666 28.3571H25.2666C24.6237 28.3571 24.0523 28.2142 23.4809 28.0714L22.0523 27.5714V23.2857C22.838 23 24.1237 22.4285 24.5523 21.5714C24.9095 20.7857 24.9809 19.8571 24.9095 19C24.9095 18.8571 24.9095 18.6428 24.9095 18.5C25.1952 18.5 25.4809 18.5714 25.6952 18.7857C26.0523 19.0714 26.6952 19.8571 26.1952 21.7143C26.1237 22.0714 26.338 22.4285 26.6952 22.5C26.7666 22.5 26.7666 22.5 26.838 22.5H28.9095C29.1952 22.5 29.5523 22.6428 29.7666 22.8571C29.9809 23.0714 30.0523 23.4285 30.0523 23.7143L29.4095 27.7857Z" fill="white"/>
</svg>
