<svg width="60" height="60" viewBox="0 0 60 60" fill="none" xmlns="http://www.w3.org/2000/svg">
<path fill-rule="evenodd" clip-rule="evenodd" d="M36.1714 54L36.1714 43.0286C38.6736 43.0286 43.0814 42.8207 43.0816 32.8042L43.0816 27.6L32.4 27.6L32.4 6L54 6L54 27.6L54 32.8042C54 40.6792 51.9621 46.5271 47.5095 50.1859C44.4295 52.7168 40.7805 54 36.1714 54ZM9.77145 54L9.77145 43.0286C12.2736 43.0286 16.6814 42.8207 16.6817 32.8042L16.6817 27.6L6.00003 27.6L6.00003 6L27.6 6L27.6 27.6L27.6 32.8042C27.6 40.6792 25.5621 46.5271 21.1096 50.1859C18.0295 52.7168 14.3805 54 9.77145 54Z" fill="#22B04C"/>
</svg>
