<svg width="176" height="48" viewBox="0 0 176 48" fill="none" xmlns="http://www.w3.org/2000/svg">
<path d="M76.306 43L72.649 35.939C74.236 35.364 75.639 33.938 75.639 31.638C75.639 28.901 73.661 26.624 70.326 26.624H63.909V43H67.106V36.468H69.406L72.603 43H76.306ZM72.442 31.638C72.442 32.903 71.522 33.8 70.119 33.8H67.106V29.476H70.119C71.522 29.476 72.442 30.373 72.442 31.638ZM88.5718 37.94V36.606C88.5718 33.317 86.6858 30.879 83.3508 30.879C80.2458 30.879 78.1298 33.087 78.1298 36.997C78.1298 41.85 80.8438 43.138 83.6728 43.138C85.8348 43.138 87.0078 42.471 88.2268 41.252L86.4098 39.481C85.6508 40.24 85.0068 40.608 83.6958 40.608C82.0168 40.608 81.0738 39.481 81.0738 37.94H88.5718ZM85.6278 35.893H81.0738C81.0968 35.364 81.1658 35.042 81.3498 34.605C81.6718 33.892 82.3388 33.363 83.3508 33.363C84.3628 33.363 85.0298 33.892 85.3518 34.605C85.5358 35.042 85.6048 35.364 85.6278 35.893ZM96.4114 43V40.47H95.2614C94.5024 40.47 94.2034 40.102 94.2034 39.389V26.624H91.2134V39.573C91.2134 41.275 92.2484 43 94.7094 43H96.4114ZM101.798 43V31.017H98.8079V43H101.798ZM101.821 28.97V26.532H98.7619V28.97H101.821ZM114.204 43V35.111C114.204 32.305 112.456 30.879 109.098 30.879C107.097 30.879 105.947 31.247 104.774 32.535L106.683 34.398C107.304 33.685 107.833 33.409 108.983 33.409C110.57 33.409 111.214 33.984 111.214 35.295V35.893H108.385C105.602 35.893 104.291 37.457 104.291 39.366C104.291 40.424 104.636 41.39 105.28 42.057C105.993 42.77 106.982 43.115 108.339 43.115C109.719 43.115 110.478 42.77 111.283 41.965V43H114.204ZM111.214 38.584C111.214 39.32 111.099 39.803 110.777 40.102C110.248 40.608 109.719 40.677 108.891 40.677C107.718 40.677 107.166 40.125 107.166 39.297C107.166 38.446 107.764 37.94 108.845 37.94H111.214V38.584ZM127.456 36.997C127.456 35.203 127.433 33.156 126.237 31.96C125.57 31.293 124.489 30.879 123.316 30.879C122.097 30.879 121.2 31.201 120.418 32.075V26.624H117.428V43H120.326V41.873C121.154 42.793 122.051 43.138 123.316 43.138C124.489 43.138 125.57 42.724 126.237 42.057C127.433 40.861 127.456 38.791 127.456 36.997ZM124.466 36.997C124.466 38.952 124.236 40.447 122.442 40.447C120.648 40.447 120.418 38.952 120.418 36.997C120.418 35.042 120.648 33.57 122.442 33.57C124.236 33.57 124.466 35.042 124.466 36.997ZM133.288 43V31.017H130.298V43H133.288ZM133.311 28.97V26.532H130.252V28.97H133.311ZM141.715 43V40.47H140.565C139.806 40.47 139.507 40.102 139.507 39.389V26.624H136.517V39.573C136.517 41.275 137.552 43 140.013 43H141.715ZM147.102 43V31.017H144.112V43H147.102ZM147.125 28.97V26.532H144.066V28.97H147.125ZM155.828 43V40.47H154.747C154.034 40.47 153.712 40.079 153.712 39.389V33.639H155.828V31.362H153.712V27.82H150.722V31.362H149.457V33.639H150.722V39.573C150.722 41.275 151.757 43 154.195 43H155.828ZM168.123 31.017H164.972L162.58 38.423L160.096 31.017H156.945L161.039 42.149L160.533 43.621C160.234 44.495 159.889 44.702 159.038 44.702H158.348V47.393H159.521C160.51 47.393 161.407 47.163 162.097 46.473C162.465 46.105 162.741 45.599 162.994 44.932L168.123 31.017Z" fill="#22B04C"/>
<path d="M72.183 20L67.746 7.896H66.658L62.204 20H63.581L64.55 17.263H69.837L70.806 20H72.183ZM69.463 16.141H64.941L67.219 9.749L69.463 16.141ZM85.8906 20V14.645C85.8906 13.676 85.5846 12.894 84.9896 12.316C84.4796 11.823 83.7316 11.534 82.8306 11.534C81.6576 11.534 80.7226 12.01 80.0766 12.928C79.5666 12.01 78.6656 11.534 77.5096 11.534C76.5746 11.534 75.7416 11.874 75.1466 12.554V11.636H73.9226V20H75.1466V14.849C75.1466 13.387 75.9796 12.622 77.2376 12.622C78.4956 12.622 79.2946 13.37 79.2946 14.849V20H80.5186V14.713C80.5186 13.387 81.3856 12.622 82.6096 12.622C83.8676 12.622 84.6666 13.37 84.6666 14.849V20H85.8906ZM94.831 20V14.322C94.831 12.503 93.726 11.534 91.482 11.534C90.122 11.534 89.272 11.806 88.524 12.775L89.357 13.54C89.85 12.843 90.394 12.588 91.465 12.588C92.995 12.588 93.607 13.2 93.607 14.424V15.223H91.091C89.221 15.223 88.201 16.175 88.201 17.637C88.201 18.3 88.422 18.929 88.83 19.337C89.357 19.881 90.037 20.102 91.193 20.102C92.315 20.102 92.927 19.881 93.607 19.201V20H94.831ZM93.607 17.042C93.607 17.739 93.471 18.215 93.182 18.487C92.655 18.997 92.026 19.048 91.312 19.048C89.986 19.048 89.391 18.589 89.391 17.62C89.391 16.651 90.003 16.141 91.261 16.141H93.607V17.042ZM103.201 20V18.912H98.5262L103.201 12.673V11.636H97.3872V12.724H101.79L97.1322 18.946V20H103.201ZM106.839 20V11.636H105.615V20H106.839ZM106.924 9.256V7.879H105.547V9.256H106.924ZM116.494 20V14.645C116.494 13.676 116.222 12.894 115.627 12.316C115.117 11.806 114.386 11.534 113.485 11.534C112.55 11.534 111.734 11.874 111.139 12.554V11.636H109.915V20H111.139V14.849C111.139 13.387 111.955 12.622 113.213 12.622C114.471 12.622 115.27 13.37 115.27 14.849V20H116.494ZM125.632 20.255V11.636H124.425V12.622C123.745 11.738 122.997 11.534 122.079 11.534C121.229 11.534 120.481 11.823 120.039 12.265C119.206 13.098 119.019 14.39 119.019 15.75C119.019 17.11 119.206 18.402 120.039 19.235C120.481 19.677 121.212 19.983 122.062 19.983C122.963 19.983 123.728 19.762 124.408 18.895V20.204C124.408 21.632 123.728 22.771 122.113 22.771C121.144 22.771 120.719 22.482 120.107 21.938L119.308 22.72C120.192 23.519 120.889 23.842 122.147 23.842C124.34 23.842 125.632 22.329 125.632 20.255ZM124.408 15.75C124.408 17.314 124.153 18.878 122.334 18.878C120.515 18.878 120.243 17.314 120.243 15.75C120.243 14.186 120.515 12.622 122.334 12.622C124.153 12.622 124.408 14.186 124.408 15.75Z" fill="black"/>
<path fill-rule="evenodd" clip-rule="evenodd" d="M24 48C37.2548 48 48 37.2548 48 24C48 10.7452 37.2548 0 24 0C10.7452 0 0 10.7452 0 24C0 37.2548 10.7452 48 24 48Z" fill="#22B04C"/>
<path d="M19.5322 24.1056C19.1556 23.729 18.6283 23.6537 18.1764 24.0302C17.7998 24.4068 17.7245 24.9341 18.1011 25.386L18.1764 25.4613L21.6411 28.926C22.0177 29.3026 22.545 29.3026 22.9216 28.926L30.0769 22.0719C30.4535 21.6953 30.4535 21.0928 30.1522 20.7162C29.9263 20.4902 29.625 20.4149 29.399 20.4149C29.1731 20.4149 29.0224 20.5656 28.8718 20.6409L22.319 26.8924L19.5322 24.1056Z" fill="white"/>
<path d="M35.1984 16.3477L24.2771 11.0753C24.1264 11 23.9758 11 23.8251 11C23.6745 11 23.5992 11 23.4486 11.0753L12.5272 16.3477C12.226 16.4983 12 16.7996 12 17.1762V21.3941C12 29.2273 16.6698 36.0061 23.4486 38.9435C23.6745 39.0188 23.9758 39.0188 24.2017 38.9435C30.9805 35.9307 35.6503 29.2273 35.6503 21.3941V17.1762C35.7256 16.8749 35.4997 16.4983 35.1984 16.3477ZM33.8426 21.3941C33.8426 28.3235 29.7754 34.2737 23.8251 37.0605C17.9502 34.2737 13.8077 28.3235 13.8077 21.3941V17.7787L23.8251 12.9583L33.8426 17.7787V21.3941Z" fill="white"/>
</svg>
