<svg width="200" height="200" viewBox="0 0 200 200" fill="none" xmlns="http://www.w3.org/2000/svg">
<circle cx="100" cy="100" r="100" fill="#22B04C"/>
<path d="M158.127 116.345C158.004 115.681 157.601 115.102 157.021 114.76L131.488 99.7066C130.742 99.2688 129.817 99.2753 129.088 99.7312L104.715 114.785C104.147 115.135 103.758 115.712 103.648 116.37C103.536 117.025 103.713 117.698 104.135 118.216C105.061 119.349 106.042 120.351 107.098 121.246V143.389C107.098 143.92 107.282 144.435 107.617 144.851C113.246 151.759 128.354 151.958 130.059 151.958C131.932 151.958 148.532 151.759 154.161 144.849C154.496 144.437 154.68 143.92 154.68 143.389V121.177C155.758 120.294 156.743 119.316 157.639 118.215C158.066 117.69 158.242 117.008 158.127 116.345ZM126.054 147.149C124.697 147.03 123.33 146.854 121.992 146.621V136.322L126.054 136.946V147.149ZM150.036 142.481C146.298 146.024 136.217 147.324 130.057 147.324C129.885 147.324 129.708 147.318 129.538 147.315V135.455C129.538 134.6 128.91 133.87 128.061 133.738L120.517 132.581C120.016 132.505 119.504 132.651 119.12 132.98C118.733 133.311 118.512 133.791 118.512 134.299V145.842C115.685 145.058 113.242 143.947 111.739 142.49V124.199C116.245 126.297 122.08 127.176 130.308 127.176C138.947 127.176 145.251 126.211 150.038 124.035V142.481H150.036V142.481Z" fill="white"/>
<path d="M91.0907 106.156C90.9691 105.488 90.5636 104.907 89.9764 104.56L67.1586 91.1657C66.4079 90.7253 65.4727 90.7305 64.7311 91.1904L42.9518 104.585C42.379 104.938 41.9853 105.518 41.8715 106.179C41.759 106.839 41.9408 107.515 42.3633 108.037C43.1729 109.025 44.0309 109.899 44.9503 110.686V130.26C44.9503 130.798 45.1347 131.318 45.4748 131.732C50.5861 137.979 64.2027 138.157 65.7408 138.157C67.4293 138.157 82.3814 137.978 87.4927 131.732C87.8314 131.319 88.0171 130.798 88.0171 130.26V110.629C88.9549 109.852 89.8168 108.996 90.6029 108.037C91.0332 107.51 91.211 106.825 91.0907 106.156ZM72.8755 132.967C71.8095 133.124 70.7266 133.249 69.6502 133.334V124.677L72.8755 124.117V132.967ZM83.3257 129.337C81.9014 130.611 79.3562 131.602 76.3924 132.302V122.042C76.3924 121.528 76.1649 121.038 75.7646 120.707C75.3683 120.373 74.8426 120.227 74.3325 120.323L67.5889 121.487C66.7453 121.633 66.1319 122.358 66.1319 123.206V133.493C66.0011 133.493 65.8677 133.498 65.7395 133.498C60.8911 133.498 52.8946 132.382 49.6405 129.351V113.616C53.6479 115.37 58.8011 116.108 65.9632 116.108C73.4967 116.108 79.0593 115.29 83.3244 113.456L83.3257 129.337Z" fill="white"/>
<path d="M120.93 79.4955V73.6064C121.763 72.9095 122.53 72.1431 123.231 71.2842C123.657 70.7621 123.835 70.0845 123.715 69.4236C123.596 68.7627 123.193 68.1866 122.612 67.8446L101.912 55.6741C101.168 55.2382 100.242 55.2446 99.5135 55.6985L79.7492 67.869C79.1844 68.2175 78.7954 68.7922 78.6843 69.4467C78.5731 70.0986 78.7515 70.7698 79.1702 71.2842C79.8927 72.1688 80.6578 72.9519 81.4734 73.6591V76.1691C57.7516 75.3744 42.131 76.9959 41.8389 77.0254L42.3416 81.6095C42.6299 81.5786 58.0476 79.9803 81.4747 80.7762V91.3651C81.4747 91.8949 81.6582 92.4092 81.9929 92.8194C86.5863 98.4411 98.2391 98.7265 100.527 98.7265C102.069 98.7265 115.72 98.5607 120.407 92.8194C120.746 92.4092 120.928 91.8936 120.928 91.3651V84.1477C132.535 85.7576 145.405 88.2817 157.973 91.4654L158.16 86.6474C145.194 83.3608 132.887 81.1286 120.93 79.4955ZM97.9664 94.0191C97.0889 93.9561 96.2035 93.8686 95.3259 93.7439V86.6808H97.9664V94.0191ZM116.293 90.4393C113.687 92.7062 107.078 93.9767 101.442 94.1027V84.9514C101.442 83.996 100.662 83.2206 99.7035 83.2206H93.5876C92.6286 83.2206 91.8505 83.9947 91.8505 84.9514V93.065C89.4478 92.4542 87.3657 91.5799 86.1107 90.4509V80.9601V76.5343C89.7309 78.0541 94.3656 78.6906 100.732 78.6906C107.436 78.6906 112.437 77.9795 116.295 76.3825V78.8912V83.5318V90.4393H116.293Z" fill="white"/>
</svg>
